<mxfile host="app.diagrams.net" agent="Mozilla/5.0 (Windows NT 10.0; Win64; x64) AppleWebKit/537.36 (KHTML, like Gecko) Chrome/131.0.0.0 Safari/537.36" version="26.0.4">
  <diagram id="C5RBs43oDa-KdzZeNtuy" name="Page-1">
    <mxGraphModel dx="6045" dy="3737" grid="1" gridSize="10" guides="1" tooltips="1" connect="1" arrows="1" fold="1" page="1" pageScale="1" pageWidth="3300" pageHeight="2339" math="0" shadow="0">
      <root>
        <mxCell id="WIyWlLk6GJQsqaUBKTNV-0" />
        <mxCell id="WIyWlLk6GJQsqaUBKTNV-1" parent="WIyWlLk6GJQsqaUBKTNV-0" />
        <mxCell id="Q-hC3Mq2sGvMtCFczJsx-110" style="edgeStyle=orthogonalEdgeStyle;rounded=0;orthogonalLoop=1;jettySize=auto;html=1;entryX=0;entryY=0.5;entryDx=0;entryDy=0;" parent="WIyWlLk6GJQsqaUBKTNV-1" source="eS_6kq-HFucETP7qqi-i-0" target="Q-hC3Mq2sGvMtCFczJsx-30" edge="1">
          <mxGeometry relative="1" as="geometry" />
        </mxCell>
        <mxCell id="eS_6kq-HFucETP7qqi-i-0" value="CreateInvoiceOrderPort" style="swimlane;fontStyle=2;align=center;verticalAlign=top;childLayout=stackLayout;horizontal=1;startSize=26;horizontalStack=0;resizeParent=1;resizeLast=0;collapsible=1;marginBottom=0;rounded=0;shadow=0;strokeWidth=1;" parent="WIyWlLk6GJQsqaUBKTNV-1" vertex="1">
          <mxGeometry x="-2038" y="-1280" width="278" height="138" as="geometry">
            <mxRectangle x="230" y="140" width="160" height="26" as="alternateBounds" />
          </mxGeometry>
        </mxCell>
        <mxCell id="eS_6kq-HFucETP7qqi-i-1" value="InvoiceOrderRepository invoiceOrderRepository" style="text;align=left;verticalAlign=top;spacingLeft=4;spacingRight=4;overflow=hidden;rotatable=0;points=[[0,0.5],[1,0.5]];portConstraint=eastwest;" parent="eS_6kq-HFucETP7qqi-i-0" vertex="1">
          <mxGeometry y="26" width="278" height="26" as="geometry" />
        </mxCell>
        <mxCell id="Q-hC3Mq2sGvMtCFczJsx-45" value="InvoiceFileRepository invoiceFileRepository" style="text;align=left;verticalAlign=top;spacingLeft=4;spacingRight=4;overflow=hidden;rotatable=0;points=[[0,0.5],[1,0.5]];portConstraint=eastwest;" parent="eS_6kq-HFucETP7qqi-i-0" vertex="1">
          <mxGeometry y="52" width="278" height="26" as="geometry" />
        </mxCell>
        <mxCell id="Q-hC3Mq2sGvMtCFczJsx-50" value="InvoiveGenerateRepository invoiceGenerateRepo" style="text;align=left;verticalAlign=top;spacingLeft=4;spacingRight=4;overflow=hidden;rotatable=0;points=[[0,0.5],[1,0.5]];portConstraint=eastwest;" parent="eS_6kq-HFucETP7qqi-i-0" vertex="1">
          <mxGeometry y="78" width="278" height="26" as="geometry" />
        </mxCell>
        <mxCell id="eS_6kq-HFucETP7qqi-i-4" value="" style="line;html=1;strokeWidth=1;align=left;verticalAlign=middle;spacingTop=-1;spacingLeft=3;spacingRight=3;rotatable=0;labelPosition=right;points=[];portConstraint=eastwest;" parent="eS_6kq-HFucETP7qqi-i-0" vertex="1">
          <mxGeometry y="104" width="278" height="8" as="geometry" />
        </mxCell>
        <mxCell id="eS_6kq-HFucETP7qqi-i-5" value="save(InvoiceOrder invoiceOrder)" style="text;align=left;verticalAlign=top;spacingLeft=4;spacingRight=4;overflow=hidden;rotatable=0;points=[[0,0.5],[1,0.5]];portConstraint=eastwest;" parent="eS_6kq-HFucETP7qqi-i-0" vertex="1">
          <mxGeometry y="112" width="278" height="26" as="geometry" />
        </mxCell>
        <mxCell id="Q-hC3Mq2sGvMtCFczJsx-132" style="edgeStyle=orthogonalEdgeStyle;rounded=0;orthogonalLoop=1;jettySize=auto;html=1;entryX=0;entryY=0.5;entryDx=0;entryDy=0;" parent="WIyWlLk6GJQsqaUBKTNV-1" source="eS_6kq-HFucETP7qqi-i-6" target="ApyK9dZCyS79xW809X-P-90" edge="1">
          <mxGeometry relative="1" as="geometry">
            <Array as="points">
              <mxPoint x="-1730" y="-884" />
              <mxPoint x="-1730" y="-970" />
              <mxPoint x="-1380" y="-970" />
            </Array>
          </mxGeometry>
        </mxCell>
        <mxCell id="eS_6kq-HFucETP7qqi-i-6" value="DeleteInvoiceOrderPort" style="swimlane;fontStyle=2;align=center;verticalAlign=top;childLayout=stackLayout;horizontal=1;startSize=26;horizontalStack=0;resizeParent=1;resizeLast=0;collapsible=1;marginBottom=0;rounded=0;shadow=0;strokeWidth=1;" parent="WIyWlLk6GJQsqaUBKTNV-1" vertex="1">
          <mxGeometry x="-2050" y="-940" width="270" height="112" as="geometry">
            <mxRectangle x="230" y="140" width="160" height="26" as="alternateBounds" />
          </mxGeometry>
        </mxCell>
        <mxCell id="eS_6kq-HFucETP7qqi-i-7" value="InvoiceOrderRepository invoiceOrderRepository" style="text;align=left;verticalAlign=top;spacingLeft=4;spacingRight=4;overflow=hidden;rotatable=0;points=[[0,0.5],[1,0.5]];portConstraint=eastwest;" parent="eS_6kq-HFucETP7qqi-i-6" vertex="1">
          <mxGeometry y="26" width="270" height="26" as="geometry" />
        </mxCell>
        <mxCell id="Q-hC3Mq2sGvMtCFczJsx-46" value="InvoiceFileRepository invoiceFileRepository" style="text;align=left;verticalAlign=top;spacingLeft=4;spacingRight=4;overflow=hidden;rotatable=0;points=[[0,0.5],[1,0.5]];portConstraint=eastwest;" parent="eS_6kq-HFucETP7qqi-i-6" vertex="1">
          <mxGeometry y="52" width="270" height="26" as="geometry" />
        </mxCell>
        <mxCell id="eS_6kq-HFucETP7qqi-i-8" value="" style="line;html=1;strokeWidth=1;align=left;verticalAlign=middle;spacingTop=-1;spacingLeft=3;spacingRight=3;rotatable=0;labelPosition=right;points=[];portConstraint=eastwest;" parent="eS_6kq-HFucETP7qqi-i-6" vertex="1">
          <mxGeometry y="78" width="270" height="8" as="geometry" />
        </mxCell>
        <mxCell id="eS_6kq-HFucETP7qqi-i-9" value="deleteById(InvoiceOrderId invoiceOrderId)" style="text;align=left;verticalAlign=top;spacingLeft=4;spacingRight=4;overflow=hidden;rotatable=0;points=[[0,0.5],[1,0.5]];portConstraint=eastwest;" parent="eS_6kq-HFucETP7qqi-i-6" vertex="1">
          <mxGeometry y="86" width="270" height="26" as="geometry" />
        </mxCell>
        <mxCell id="Q-hC3Mq2sGvMtCFczJsx-109" style="edgeStyle=orthogonalEdgeStyle;rounded=0;orthogonalLoop=1;jettySize=auto;html=1;entryX=0;entryY=0.5;entryDx=0;entryDy=0;" parent="WIyWlLk6GJQsqaUBKTNV-1" source="eS_6kq-HFucETP7qqi-i-10" target="Q-hC3Mq2sGvMtCFczJsx-30" edge="1">
          <mxGeometry relative="1" as="geometry">
            <Array as="points">
              <mxPoint x="-1740" y="-1040" />
              <mxPoint x="-1740" y="-1140" />
              <mxPoint x="-1730" y="-1140" />
            </Array>
          </mxGeometry>
        </mxCell>
        <mxCell id="eS_6kq-HFucETP7qqi-i-10" value="ModifyInvoiceOrderPort" style="swimlane;fontStyle=2;align=center;verticalAlign=top;childLayout=stackLayout;horizontal=1;startSize=26;horizontalStack=0;resizeParent=1;resizeLast=0;collapsible=1;marginBottom=0;rounded=0;shadow=0;strokeWidth=1;" parent="WIyWlLk6GJQsqaUBKTNV-1" vertex="1">
          <mxGeometry x="-2040" y="-1110" width="263" height="140" as="geometry">
            <mxRectangle x="230" y="140" width="160" height="26" as="alternateBounds" />
          </mxGeometry>
        </mxCell>
        <mxCell id="eS_6kq-HFucETP7qqi-i-11" value="InvoiceOrderRepository invoiceOrderRepository" style="text;align=left;verticalAlign=top;spacingLeft=4;spacingRight=4;overflow=hidden;rotatable=0;points=[[0,0.5],[1,0.5]];portConstraint=eastwest;" parent="eS_6kq-HFucETP7qqi-i-10" vertex="1">
          <mxGeometry y="26" width="263" height="26" as="geometry" />
        </mxCell>
        <mxCell id="Q-hC3Mq2sGvMtCFczJsx-49" value="InvoiveGenerateRepository invoiceGenerateRepo" style="text;align=left;verticalAlign=top;spacingLeft=4;spacingRight=4;overflow=hidden;rotatable=0;points=[[0,0.5],[1,0.5]];portConstraint=eastwest;" parent="eS_6kq-HFucETP7qqi-i-10" vertex="1">
          <mxGeometry y="52" width="263" height="26" as="geometry" />
        </mxCell>
        <mxCell id="Q-hC3Mq2sGvMtCFczJsx-47" value="InvoiceFileRepository invoiceFileRepository" style="text;align=left;verticalAlign=top;spacingLeft=4;spacingRight=4;overflow=hidden;rotatable=0;points=[[0,0.5],[1,0.5]];portConstraint=eastwest;" parent="eS_6kq-HFucETP7qqi-i-10" vertex="1">
          <mxGeometry y="78" width="263" height="26" as="geometry" />
        </mxCell>
        <mxCell id="eS_6kq-HFucETP7qqi-i-12" value="" style="line;html=1;strokeWidth=1;align=left;verticalAlign=middle;spacingTop=-1;spacingLeft=3;spacingRight=3;rotatable=0;labelPosition=right;points=[];portConstraint=eastwest;" parent="eS_6kq-HFucETP7qqi-i-10" vertex="1">
          <mxGeometry y="104" width="263" height="8" as="geometry" />
        </mxCell>
        <mxCell id="eS_6kq-HFucETP7qqi-i-13" value="modifyInvoiceOrder(InvoiceOrder invoiceOrder)" style="text;align=left;verticalAlign=top;spacingLeft=4;spacingRight=4;overflow=hidden;rotatable=0;points=[[0,0.5],[1,0.5]];portConstraint=eastwest;" parent="eS_6kq-HFucETP7qqi-i-10" vertex="1">
          <mxGeometry y="112" width="263" height="26" as="geometry" />
        </mxCell>
        <mxCell id="eS_6kq-HFucETP7qqi-i-14" value="FindInvoiceOrderByIdPort" style="swimlane;fontStyle=2;align=center;verticalAlign=top;childLayout=stackLayout;horizontal=1;startSize=26;horizontalStack=0;resizeParent=1;resizeLast=0;collapsible=1;marginBottom=0;rounded=0;shadow=0;strokeWidth=1;" parent="WIyWlLk6GJQsqaUBKTNV-1" vertex="1">
          <mxGeometry x="-2031" y="-1390" width="271" height="90" as="geometry">
            <mxRectangle x="230" y="140" width="160" height="26" as="alternateBounds" />
          </mxGeometry>
        </mxCell>
        <mxCell id="eS_6kq-HFucETP7qqi-i-15" value="InvoiceOrderRepository invoiceOrderRepository" style="text;align=left;verticalAlign=top;spacingLeft=4;spacingRight=4;overflow=hidden;rotatable=0;points=[[0,0.5],[1,0.5]];portConstraint=eastwest;" parent="eS_6kq-HFucETP7qqi-i-14" vertex="1">
          <mxGeometry y="26" width="271" height="26" as="geometry" />
        </mxCell>
        <mxCell id="eS_6kq-HFucETP7qqi-i-16" value="" style="line;html=1;strokeWidth=1;align=left;verticalAlign=middle;spacingTop=-1;spacingLeft=3;spacingRight=3;rotatable=0;labelPosition=right;points=[];portConstraint=eastwest;" parent="eS_6kq-HFucETP7qqi-i-14" vertex="1">
          <mxGeometry y="52" width="271" height="8" as="geometry" />
        </mxCell>
        <mxCell id="eS_6kq-HFucETP7qqi-i-17" value="getInvoiceOrderById(String invoiceOrderId)" style="text;align=left;verticalAlign=top;spacingLeft=4;spacingRight=4;overflow=hidden;rotatable=0;points=[[0,0.5],[1,0.5]];portConstraint=eastwest;" parent="eS_6kq-HFucETP7qqi-i-14" vertex="1">
          <mxGeometry y="60" width="271" height="26" as="geometry" />
        </mxCell>
        <mxCell id="eS_6kq-HFucETP7qqi-i-261" style="edgeStyle=orthogonalEdgeStyle;rounded=0;orthogonalLoop=1;jettySize=auto;html=1;entryX=0.5;entryY=1;entryDx=0;entryDy=0;exitX=1;exitY=0.5;exitDx=0;exitDy=0;" parent="WIyWlLk6GJQsqaUBKTNV-1" source="eS_6kq-HFucETP7qqi-i-19" target="eS_6kq-HFucETP7qqi-i-44" edge="1">
          <mxGeometry relative="1" as="geometry">
            <mxPoint x="-1890" y="-1690" as="sourcePoint" />
          </mxGeometry>
        </mxCell>
        <mxCell id="eS_6kq-HFucETP7qqi-i-18" value="FindInvoiceOrdersPort" style="swimlane;fontStyle=2;align=center;verticalAlign=top;childLayout=stackLayout;horizontal=1;startSize=26;horizontalStack=0;resizeParent=1;resizeLast=0;collapsible=1;marginBottom=0;rounded=0;shadow=0;strokeWidth=1;" parent="WIyWlLk6GJQsqaUBKTNV-1" vertex="1">
          <mxGeometry x="-2051" y="-1520" width="341" height="112" as="geometry">
            <mxRectangle x="230" y="140" width="160" height="26" as="alternateBounds" />
          </mxGeometry>
        </mxCell>
        <mxCell id="eS_6kq-HFucETP7qqi-i-19" value="InvoiceOrderRepository invoiceOrderRepository" style="text;align=left;verticalAlign=top;spacingLeft=4;spacingRight=4;overflow=hidden;rotatable=0;points=[[0,0.5],[1,0.5]];portConstraint=eastwest;" parent="eS_6kq-HFucETP7qqi-i-18" vertex="1">
          <mxGeometry y="26" width="341" height="26" as="geometry" />
        </mxCell>
        <mxCell id="eS_6kq-HFucETP7qqi-i-22" value="List&lt;InvoiceOrderFieldFilter&gt; invoiceOrderFilterList  " style="text;align=left;verticalAlign=top;spacingLeft=4;spacingRight=4;overflow=hidden;rotatable=0;points=[[0,0.5],[1,0.5]];portConstraint=eastwest;" parent="eS_6kq-HFucETP7qqi-i-18" vertex="1">
          <mxGeometry y="52" width="341" height="26" as="geometry" />
        </mxCell>
        <mxCell id="eS_6kq-HFucETP7qqi-i-20" value="" style="line;html=1;strokeWidth=1;align=left;verticalAlign=middle;spacingTop=-1;spacingLeft=3;spacingRight=3;rotatable=0;labelPosition=right;points=[];portConstraint=eastwest;" parent="eS_6kq-HFucETP7qqi-i-18" vertex="1">
          <mxGeometry y="78" width="341" height="8" as="geometry" />
        </mxCell>
        <mxCell id="eS_6kq-HFucETP7qqi-i-21" value="findInvoiceOrderById(InvoiceOrderFilters invoiceOrderFilters)" style="text;align=left;verticalAlign=top;spacingLeft=4;spacingRight=4;overflow=hidden;rotatable=0;points=[[0,0.5],[1,0.5]];portConstraint=eastwest;" parent="eS_6kq-HFucETP7qqi-i-18" vertex="1">
          <mxGeometry y="86" width="341" height="26" as="geometry" />
        </mxCell>
        <mxCell id="eS_6kq-HFucETP7qqi-i-23" value="CreateInvoiceOrderUseCase" style="swimlane;fontStyle=2;align=center;verticalAlign=top;childLayout=stackLayout;horizontal=1;startSize=26;horizontalStack=0;resizeParent=1;resizeLast=0;collapsible=1;marginBottom=0;rounded=0;shadow=0;strokeWidth=1;fillColor=#fff2cc;strokeColor=#d6b656;" parent="WIyWlLk6GJQsqaUBKTNV-1" vertex="1">
          <mxGeometry x="-2367.5" y="-1247" width="187.5" height="60" as="geometry">
            <mxRectangle x="230" y="140" width="160" height="26" as="alternateBounds" />
          </mxGeometry>
        </mxCell>
        <mxCell id="eS_6kq-HFucETP7qqi-i-26" value="save(InvoiceOrder invoiceOrder)" style="text;align=left;verticalAlign=top;spacingLeft=4;spacingRight=4;overflow=hidden;rotatable=0;points=[[0,0.5],[1,0.5]];portConstraint=eastwest;" parent="eS_6kq-HFucETP7qqi-i-23" vertex="1">
          <mxGeometry y="26" width="187.5" height="26" as="geometry" />
        </mxCell>
        <mxCell id="eS_6kq-HFucETP7qqi-i-27" value="DeleteInvoiceOrderUseCase" style="swimlane;fontStyle=2;align=center;verticalAlign=top;childLayout=stackLayout;horizontal=1;startSize=26;horizontalStack=0;resizeParent=1;resizeLast=0;collapsible=1;marginBottom=0;rounded=0;shadow=0;strokeWidth=1;fillColor=#fff2cc;strokeColor=#d6b656;" parent="WIyWlLk6GJQsqaUBKTNV-1" vertex="1">
          <mxGeometry x="-2357" y="-925" width="185" height="60" as="geometry">
            <mxRectangle x="230" y="140" width="160" height="26" as="alternateBounds" />
          </mxGeometry>
        </mxCell>
        <mxCell id="eS_6kq-HFucETP7qqi-i-30" value="deleteById(String invoiceOrderId)" style="text;align=left;verticalAlign=top;spacingLeft=4;spacingRight=4;overflow=hidden;rotatable=0;points=[[0,0.5],[1,0.5]];portConstraint=eastwest;" parent="eS_6kq-HFucETP7qqi-i-27" vertex="1">
          <mxGeometry y="26" width="185" height="26" as="geometry" />
        </mxCell>
        <mxCell id="eS_6kq-HFucETP7qqi-i-31" value="ModifyInvoiceOrderUseCase" style="swimlane;fontStyle=2;align=center;verticalAlign=top;childLayout=stackLayout;horizontal=1;startSize=26;horizontalStack=0;resizeParent=1;resizeLast=0;collapsible=1;marginBottom=0;rounded=0;shadow=0;strokeWidth=1;fillColor=#fff2cc;strokeColor=#d6b656;" parent="WIyWlLk6GJQsqaUBKTNV-1" vertex="1">
          <mxGeometry x="-2370" y="-1098" width="260" height="60" as="geometry">
            <mxRectangle x="230" y="140" width="160" height="26" as="alternateBounds" />
          </mxGeometry>
        </mxCell>
        <mxCell id="eS_6kq-HFucETP7qqi-i-34" value="modifyInvoiceOrder(InvoiceOrder invoiceOrder)" style="text;align=left;verticalAlign=top;spacingLeft=4;spacingRight=4;overflow=hidden;rotatable=0;points=[[0,0.5],[1,0.5]];portConstraint=eastwest;" parent="eS_6kq-HFucETP7qqi-i-31" vertex="1">
          <mxGeometry y="26" width="260" height="26" as="geometry" />
        </mxCell>
        <mxCell id="eS_6kq-HFucETP7qqi-i-35" value="GetInvoiceOrderByIdUseCase" style="swimlane;fontStyle=2;align=center;verticalAlign=top;childLayout=stackLayout;horizontal=1;startSize=26;horizontalStack=0;resizeParent=1;resizeLast=0;collapsible=1;marginBottom=0;rounded=0;shadow=0;strokeWidth=1;fillColor=#fff2cc;strokeColor=#d6b656;" parent="WIyWlLk6GJQsqaUBKTNV-1" vertex="1">
          <mxGeometry x="-2380" y="-1360" width="240" height="52" as="geometry">
            <mxRectangle x="230" y="140" width="160" height="26" as="alternateBounds" />
          </mxGeometry>
        </mxCell>
        <mxCell id="eS_6kq-HFucETP7qqi-i-38" value="getInvoiceOrderById(String invoiceOrderId)" style="text;align=left;verticalAlign=top;spacingLeft=4;spacingRight=4;overflow=hidden;rotatable=0;points=[[0,0.5],[1,0.5]];portConstraint=eastwest;" parent="eS_6kq-HFucETP7qqi-i-35" vertex="1">
          <mxGeometry y="26" width="240" height="26" as="geometry" />
        </mxCell>
        <mxCell id="eS_6kq-HFucETP7qqi-i-39" value="FindInvoiceOrdersUseCase" style="swimlane;fontStyle=2;align=center;verticalAlign=top;childLayout=stackLayout;horizontal=1;startSize=26;horizontalStack=0;resizeParent=1;resizeLast=0;collapsible=1;marginBottom=0;rounded=0;shadow=0;strokeWidth=1;fillColor=#fff2cc;strokeColor=#d6b656;" parent="WIyWlLk6GJQsqaUBKTNV-1" vertex="1">
          <mxGeometry x="-2430" y="-1491" width="340" height="60" as="geometry">
            <mxRectangle x="230" y="140" width="160" height="26" as="alternateBounds" />
          </mxGeometry>
        </mxCell>
        <mxCell id="eS_6kq-HFucETP7qqi-i-43" value="findInvoiceOrderById(InvoiceOrderFilters invoiceOrderFilters)" style="text;align=left;verticalAlign=top;spacingLeft=4;spacingRight=4;overflow=hidden;rotatable=0;points=[[0,0.5],[1,0.5]];portConstraint=eastwest;" parent="eS_6kq-HFucETP7qqi-i-39" vertex="1">
          <mxGeometry y="26" width="340" height="26" as="geometry" />
        </mxCell>
        <mxCell id="ApyK9dZCyS79xW809X-P-19" style="edgeStyle=orthogonalEdgeStyle;rounded=0;orthogonalLoop=1;jettySize=auto;html=1;startArrow=block;startFill=0;endArrow=none;endFill=0;" parent="WIyWlLk6GJQsqaUBKTNV-1" source="eS_6kq-HFucETP7qqi-i-44" target="eS_6kq-HFucETP7qqi-i-67" edge="1">
          <mxGeometry relative="1" as="geometry" />
        </mxCell>
        <mxCell id="eS_6kq-HFucETP7qqi-i-44" value="FieldFilter&lt;T&gt;" style="swimlane;fontStyle=2;align=center;verticalAlign=top;childLayout=stackLayout;horizontal=1;startSize=26;horizontalStack=0;resizeParent=1;resizeLast=0;collapsible=1;marginBottom=0;rounded=0;shadow=0;strokeWidth=1;fillColor=#fff2cc;strokeColor=#d6b656;" parent="WIyWlLk6GJQsqaUBKTNV-1" vertex="1">
          <mxGeometry x="-1710" y="-1652" width="240" height="120" as="geometry">
            <mxRectangle x="230" y="140" width="160" height="26" as="alternateBounds" />
          </mxGeometry>
        </mxCell>
        <mxCell id="eS_6kq-HFucETP7qqi-i-47" value="apply (T filter)" style="text;align=left;verticalAlign=top;spacingLeft=4;spacingRight=4;overflow=hidden;rotatable=0;points=[[0,0.5],[1,0.5]];portConstraint=eastwest;" parent="eS_6kq-HFucETP7qqi-i-44" vertex="1">
          <mxGeometry y="26" width="240" height="26" as="geometry" />
        </mxCell>
        <mxCell id="eS_6kq-HFucETP7qqi-i-58" value="addSearchCriteria(T&#xa;filter, List&lt;SearchCriteria&gt; &#xa;searchCriteriaList)" style="text;align=left;verticalAlign=top;spacingLeft=4;spacingRight=4;overflow=hidden;rotatable=0;points=[[0,0.5],[1,0.5]];portConstraint=eastwest;fillColor=#FFFFFF;" parent="eS_6kq-HFucETP7qqi-i-44" vertex="1">
          <mxGeometry y="52" width="240" height="44" as="geometry" />
        </mxCell>
        <mxCell id="eS_6kq-HFucETP7qqi-i-208" value="" style="edgeStyle=orthogonalEdgeStyle;rounded=0;orthogonalLoop=1;jettySize=auto;html=1;entryX=0.453;entryY=0.006;entryDx=0;entryDy=0;entryPerimeter=0;" parent="WIyWlLk6GJQsqaUBKTNV-1" source="eS_6kq-HFucETP7qqi-i-48" target="eS_6kq-HFucETP7qqi-i-53" edge="1">
          <mxGeometry relative="1" as="geometry" />
        </mxCell>
        <mxCell id="eS_6kq-HFucETP7qqi-i-48" value="SearchCriteria" style="swimlane;fontStyle=2;align=center;verticalAlign=top;childLayout=stackLayout;horizontal=1;startSize=26;horizontalStack=0;resizeParent=1;resizeLast=0;collapsible=1;marginBottom=0;rounded=0;shadow=0;strokeWidth=1;" parent="WIyWlLk6GJQsqaUBKTNV-1" vertex="1">
          <mxGeometry x="-1170" y="-852" width="210" height="104" as="geometry">
            <mxRectangle x="230" y="140" width="160" height="26" as="alternateBounds" />
          </mxGeometry>
        </mxCell>
        <mxCell id="eS_6kq-HFucETP7qqi-i-49" value="key (String)" style="text;align=left;verticalAlign=top;spacingLeft=4;spacingRight=4;overflow=hidden;rotatable=0;points=[[0,0.5],[1,0.5]];portConstraint=eastwest;" parent="eS_6kq-HFucETP7qqi-i-48" vertex="1">
          <mxGeometry y="26" width="210" height="26" as="geometry" />
        </mxCell>
        <mxCell id="eS_6kq-HFucETP7qqi-i-52" value="operation (SearchOperation)" style="text;align=left;verticalAlign=top;spacingLeft=4;spacingRight=4;overflow=hidden;rotatable=0;points=[[0,0.5],[1,0.5]];portConstraint=eastwest;" parent="eS_6kq-HFucETP7qqi-i-48" vertex="1">
          <mxGeometry y="52" width="210" height="26" as="geometry" />
        </mxCell>
        <mxCell id="eS_6kq-HFucETP7qqi-i-51" value="value (Object)" style="text;align=left;verticalAlign=top;spacingLeft=4;spacingRight=4;overflow=hidden;rotatable=0;points=[[0,0.5],[1,0.5]];portConstraint=eastwest;" parent="eS_6kq-HFucETP7qqi-i-48" vertex="1">
          <mxGeometry y="78" width="210" height="26" as="geometry" />
        </mxCell>
        <mxCell id="eS_6kq-HFucETP7qqi-i-53" value="SearchOperation (enum)" style="swimlane;fontStyle=2;align=center;verticalAlign=top;childLayout=stackLayout;horizontal=1;startSize=26;horizontalStack=0;resizeParent=1;resizeLast=0;collapsible=1;marginBottom=0;rounded=0;shadow=0;strokeWidth=1;" parent="WIyWlLk6GJQsqaUBKTNV-1" vertex="1">
          <mxGeometry x="-1160" y="-712" width="210" height="104" as="geometry">
            <mxRectangle x="230" y="140" width="160" height="26" as="alternateBounds" />
          </mxGeometry>
        </mxCell>
        <mxCell id="eS_6kq-HFucETP7qqi-i-54" value="EQUAL" style="text;align=left;verticalAlign=top;spacingLeft=4;spacingRight=4;overflow=hidden;rotatable=0;points=[[0,0.5],[1,0.5]];portConstraint=eastwest;" parent="eS_6kq-HFucETP7qqi-i-53" vertex="1">
          <mxGeometry y="26" width="210" height="26" as="geometry" />
        </mxCell>
        <mxCell id="eS_6kq-HFucETP7qqi-i-55" value="LIKE" style="text;align=left;verticalAlign=top;spacingLeft=4;spacingRight=4;overflow=hidden;rotatable=0;points=[[0,0.5],[1,0.5]];portConstraint=eastwest;" parent="eS_6kq-HFucETP7qqi-i-53" vertex="1">
          <mxGeometry y="52" width="210" height="26" as="geometry" />
        </mxCell>
        <mxCell id="eS_6kq-HFucETP7qqi-i-67" value="InvoiceStatusFilter" style="swimlane;fontStyle=2;align=center;verticalAlign=top;childLayout=stackLayout;horizontal=1;startSize=26;horizontalStack=0;resizeParent=1;resizeLast=0;collapsible=1;marginBottom=0;rounded=0;shadow=0;strokeWidth=1;" parent="WIyWlLk6GJQsqaUBKTNV-1" vertex="1">
          <mxGeometry x="-1730" y="-1780" width="240" height="110" as="geometry">
            <mxRectangle x="230" y="140" width="160" height="26" as="alternateBounds" />
          </mxGeometry>
        </mxCell>
        <mxCell id="eS_6kq-HFucETP7qqi-i-68" value="apply (InvoiceOrderfilter invoiceOrderFilter)" style="text;align=left;verticalAlign=top;spacingLeft=4;spacingRight=4;overflow=hidden;rotatable=0;points=[[0,0.5],[1,0.5]];portConstraint=eastwest;" parent="eS_6kq-HFucETP7qqi-i-67" vertex="1">
          <mxGeometry y="26" width="240" height="26" as="geometry" />
        </mxCell>
        <mxCell id="eS_6kq-HFucETP7qqi-i-69" value="addSearchCriteria(InvoiceOrderFilter &#xa;InvoiceOrderFilter, List&lt;SearchCriteria&gt; &#xa;searchCriteriaList)" style="text;align=left;verticalAlign=top;spacingLeft=4;spacingRight=4;overflow=hidden;rotatable=0;points=[[0,0.5],[1,0.5]];portConstraint=eastwest;fillColor=#FFFFFF;" parent="eS_6kq-HFucETP7qqi-i-67" vertex="1">
          <mxGeometry y="52" width="240" height="44" as="geometry" />
        </mxCell>
        <mxCell id="eS_6kq-HFucETP7qqi-i-202" style="edgeStyle=orthogonalEdgeStyle;rounded=0;orthogonalLoop=1;jettySize=auto;html=1;endArrow=none;endFill=0;startArrow=classic;startFill=1;" parent="WIyWlLk6GJQsqaUBKTNV-1" source="eS_6kq-HFucETP7qqi-i-82" edge="1">
          <mxGeometry relative="1" as="geometry">
            <mxPoint x="-1305.0000000000005" y="-1232" as="targetPoint" />
          </mxGeometry>
        </mxCell>
        <mxCell id="eS_6kq-HFucETP7qqi-i-82" value="InvoiceOrder" style="swimlane;fontStyle=2;align=center;verticalAlign=top;childLayout=stackLayout;horizontal=1;startSize=26;horizontalStack=0;resizeParent=1;resizeLast=0;collapsible=1;marginBottom=0;rounded=0;shadow=0;strokeWidth=1;" parent="WIyWlLk6GJQsqaUBKTNV-1" vertex="1">
          <mxGeometry x="-1485" y="-1512" width="185" height="140" as="geometry">
            <mxRectangle x="230" y="140" width="160" height="26" as="alternateBounds" />
          </mxGeometry>
        </mxCell>
        <mxCell id="ApyK9dZCyS79xW809X-P-57" value="String invoiceOrderId" style="text;align=left;verticalAlign=top;spacingLeft=4;spacingRight=4;overflow=hidden;rotatable=0;points=[[0,0.5],[1,0.5]];portConstraint=eastwest;" parent="eS_6kq-HFucETP7qqi-i-82" vertex="1">
          <mxGeometry y="26" width="185" height="26" as="geometry" />
        </mxCell>
        <mxCell id="ApyK9dZCyS79xW809X-P-58" value="String invoiceDataId" style="text;align=left;verticalAlign=top;spacingLeft=4;spacingRight=4;overflow=hidden;rotatable=0;points=[[0,0.5],[1,0.5]];portConstraint=eastwest;" parent="eS_6kq-HFucETP7qqi-i-82" vertex="1">
          <mxGeometry y="52" width="185" height="26" as="geometry" />
        </mxCell>
        <mxCell id="t1oqon4EwB-zLtlNva9r-2" value="String appointmentId" style="text;align=left;verticalAlign=top;spacingLeft=4;spacingRight=4;overflow=hidden;rotatable=0;points=[[0,0.5],[1,0.5]];portConstraint=eastwest;" vertex="1" parent="eS_6kq-HFucETP7qqi-i-82">
          <mxGeometry y="78" width="185" height="26" as="geometry" />
        </mxCell>
        <mxCell id="ApyK9dZCyS79xW809X-P-60" value="Status status" style="text;align=left;verticalAlign=top;spacingLeft=4;spacingRight=4;overflow=hidden;rotatable=0;points=[[0,0.5],[1,0.5]];portConstraint=eastwest;" parent="eS_6kq-HFucETP7qqi-i-82" vertex="1">
          <mxGeometry y="104" width="185" height="26" as="geometry" />
        </mxCell>
        <mxCell id="eS_6kq-HFucETP7qqi-i-203" style="edgeStyle=orthogonalEdgeStyle;rounded=0;orthogonalLoop=1;jettySize=auto;html=1;entryX=0.5;entryY=0;entryDx=0;entryDy=0;endArrow=none;endFill=0;startArrow=classic;startFill=1;" parent="WIyWlLk6GJQsqaUBKTNV-1" source="eS_6kq-HFucETP7qqi-i-89" edge="1">
          <mxGeometry relative="1" as="geometry">
            <mxPoint x="-1305" y="-1232" as="targetPoint" />
            <Array as="points">
              <mxPoint x="-1190" y="-1302" />
              <mxPoint x="-1305" y="-1302" />
            </Array>
          </mxGeometry>
        </mxCell>
        <mxCell id="eS_6kq-HFucETP7qqi-i-89" value="InvoiceOrderFilters" style="swimlane;fontStyle=2;align=center;verticalAlign=top;childLayout=stackLayout;horizontal=1;startSize=26;horizontalStack=0;resizeParent=1;resizeLast=0;collapsible=1;marginBottom=0;rounded=0;shadow=0;strokeWidth=1;" parent="WIyWlLk6GJQsqaUBKTNV-1" vertex="1">
          <mxGeometry x="-1282.5" y="-1494" width="185" height="132" as="geometry">
            <mxRectangle x="230" y="140" width="160" height="26" as="alternateBounds" />
          </mxGeometry>
        </mxCell>
        <mxCell id="fZH0zaRF4FUL2NhPZPXz-0" value="String invoiceOrderId" style="text;align=left;verticalAlign=top;spacingLeft=4;spacingRight=4;overflow=hidden;rotatable=0;points=[[0,0.5],[1,0.5]];portConstraint=eastwest;" parent="eS_6kq-HFucETP7qqi-i-89" vertex="1">
          <mxGeometry y="26" width="185" height="26" as="geometry" />
        </mxCell>
        <mxCell id="fZH0zaRF4FUL2NhPZPXz-2" value="Status status" style="text;align=left;verticalAlign=top;spacingLeft=4;spacingRight=4;overflow=hidden;rotatable=0;points=[[0,0.5],[1,0.5]];portConstraint=eastwest;" parent="eS_6kq-HFucETP7qqi-i-89" vertex="1">
          <mxGeometry y="52" width="185" height="26" as="geometry" />
        </mxCell>
        <mxCell id="fZH0zaRF4FUL2NhPZPXz-1" value="String invoiceDataId" style="text;align=left;verticalAlign=top;spacingLeft=4;spacingRight=4;overflow=hidden;rotatable=0;points=[[0,0.5],[1,0.5]];portConstraint=eastwest;" parent="eS_6kq-HFucETP7qqi-i-89" vertex="1">
          <mxGeometry y="78" width="185" height="26" as="geometry" />
        </mxCell>
        <mxCell id="eS_6kq-HFucETP7qqi-i-207" style="edgeStyle=orthogonalEdgeStyle;rounded=0;orthogonalLoop=1;jettySize=auto;html=1;exitX=1.004;exitY=0.396;exitDx=0;exitDy=0;exitPerimeter=0;" parent="WIyWlLk6GJQsqaUBKTNV-1" source="ApyK9dZCyS79xW809X-P-90" target="eS_6kq-HFucETP7qqi-i-48" edge="1">
          <mxGeometry relative="1" as="geometry">
            <mxPoint x="-1300" y="-1000" as="sourcePoint" />
            <Array as="points">
              <mxPoint x="-1120" y="-1049" />
            </Array>
          </mxGeometry>
        </mxCell>
        <mxCell id="eS_6kq-HFucETP7qqi-i-105" value="InvoiceOrderApiModel" style="swimlane;fontStyle=2;align=center;verticalAlign=top;childLayout=stackLayout;horizontal=1;startSize=26;horizontalStack=0;resizeParent=1;resizeLast=0;collapsible=1;marginBottom=0;rounded=0;shadow=0;strokeWidth=1;" parent="WIyWlLk6GJQsqaUBKTNV-1" vertex="1">
          <mxGeometry x="-2690" y="-1597.5" width="185" height="137" as="geometry">
            <mxRectangle x="230" y="140" width="160" height="26" as="alternateBounds" />
          </mxGeometry>
        </mxCell>
        <mxCell id="fZH0zaRF4FUL2NhPZPXz-5" value="Status status" style="text;align=left;verticalAlign=top;spacingLeft=4;spacingRight=4;overflow=hidden;rotatable=0;points=[[0,0.5],[1,0.5]];portConstraint=eastwest;" parent="eS_6kq-HFucETP7qqi-i-105" vertex="1">
          <mxGeometry y="26" width="185" height="26" as="geometry" />
        </mxCell>
        <mxCell id="fZH0zaRF4FUL2NhPZPXz-4" value="String invoiceDataId" style="text;align=left;verticalAlign=top;spacingLeft=4;spacingRight=4;overflow=hidden;rotatable=0;points=[[0,0.5],[1,0.5]];portConstraint=eastwest;" parent="eS_6kq-HFucETP7qqi-i-105" vertex="1">
          <mxGeometry y="52" width="185" height="26" as="geometry" />
        </mxCell>
        <mxCell id="fZH0zaRF4FUL2NhPZPXz-3" value="String invoiceOrderId" style="text;align=left;verticalAlign=top;spacingLeft=4;spacingRight=4;overflow=hidden;rotatable=0;points=[[0,0.5],[1,0.5]];portConstraint=eastwest;" parent="eS_6kq-HFucETP7qqi-i-105" vertex="1">
          <mxGeometry y="78" width="185" height="26" as="geometry" />
        </mxCell>
        <mxCell id="t1oqon4EwB-zLtlNva9r-0" value="String appointmentId" style="text;align=left;verticalAlign=top;spacingLeft=4;spacingRight=4;overflow=hidden;rotatable=0;points=[[0,0.5],[1,0.5]];portConstraint=eastwest;" vertex="1" parent="eS_6kq-HFucETP7qqi-i-105">
          <mxGeometry y="104" width="185" height="26" as="geometry" />
        </mxCell>
        <mxCell id="eS_6kq-HFucETP7qqi-i-113" value="InvoiceOrderFilterApiModel" style="swimlane;fontStyle=2;align=center;verticalAlign=top;childLayout=stackLayout;horizontal=1;startSize=26;horizontalStack=0;resizeParent=1;resizeLast=0;collapsible=1;marginBottom=0;rounded=0;shadow=0;strokeWidth=1;" parent="WIyWlLk6GJQsqaUBKTNV-1" vertex="1">
          <mxGeometry x="-2920" y="-1601.5" width="185" height="130" as="geometry">
            <mxRectangle x="230" y="140" width="160" height="26" as="alternateBounds" />
          </mxGeometry>
        </mxCell>
        <mxCell id="fZH0zaRF4FUL2NhPZPXz-6" value="String invoiceOrderId" style="text;align=left;verticalAlign=top;spacingLeft=4;spacingRight=4;overflow=hidden;rotatable=0;points=[[0,0.5],[1,0.5]];portConstraint=eastwest;" parent="eS_6kq-HFucETP7qqi-i-113" vertex="1">
          <mxGeometry y="26" width="185" height="26" as="geometry" />
        </mxCell>
        <mxCell id="fZH0zaRF4FUL2NhPZPXz-7" value="String invoiceDataId" style="text;align=left;verticalAlign=top;spacingLeft=4;spacingRight=4;overflow=hidden;rotatable=0;points=[[0,0.5],[1,0.5]];portConstraint=eastwest;" parent="eS_6kq-HFucETP7qqi-i-113" vertex="1">
          <mxGeometry y="52" width="185" height="26" as="geometry" />
        </mxCell>
        <mxCell id="fZH0zaRF4FUL2NhPZPXz-8" value="Status status" style="text;align=left;verticalAlign=top;spacingLeft=4;spacingRight=4;overflow=hidden;rotatable=0;points=[[0,0.5],[1,0.5]];portConstraint=eastwest;" parent="eS_6kq-HFucETP7qqi-i-113" vertex="1">
          <mxGeometry y="78" width="185" height="26" as="geometry" />
        </mxCell>
        <mxCell id="eS_6kq-HFucETP7qqi-i-121" value="InvoiceOrderEntity" style="swimlane;fontStyle=2;align=center;verticalAlign=top;childLayout=stackLayout;horizontal=1;startSize=26;horizontalStack=0;resizeParent=1;resizeLast=0;collapsible=1;marginBottom=0;rounded=0;shadow=0;strokeWidth=1;" parent="WIyWlLk6GJQsqaUBKTNV-1" vertex="1">
          <mxGeometry x="-820" y="-1530" width="185" height="138" as="geometry">
            <mxRectangle x="230" y="140" width="160" height="26" as="alternateBounds" />
          </mxGeometry>
        </mxCell>
        <mxCell id="eS_6kq-HFucETP7qqi-i-209" style="edgeStyle=orthogonalEdgeStyle;rounded=0;orthogonalLoop=1;jettySize=auto;html=1;entryX=0.013;entryY=0.903;entryDx=0;entryDy=0;entryPerimeter=0;exitX=0.994;exitY=0.41;exitDx=0;exitDy=0;exitPerimeter=0;" parent="eS_6kq-HFucETP7qqi-i-121" source="eS_6kq-HFucETP7qqi-i-141" edge="1">
          <mxGeometry relative="1" as="geometry">
            <mxPoint x="50" y="244.99999999999977" as="sourcePoint" />
            <mxPoint x="84.4050000000002" y="134.47799999999984" as="targetPoint" />
          </mxGeometry>
        </mxCell>
        <mxCell id="fZH0zaRF4FUL2NhPZPXz-9" value="String invoiceOrderId" style="text;align=left;verticalAlign=top;spacingLeft=4;spacingRight=4;overflow=hidden;rotatable=0;points=[[0,0.5],[1,0.5]];portConstraint=eastwest;" parent="eS_6kq-HFucETP7qqi-i-121" vertex="1">
          <mxGeometry y="26" width="185" height="26" as="geometry" />
        </mxCell>
        <mxCell id="fZH0zaRF4FUL2NhPZPXz-10" value="String invoiceDataId" style="text;align=left;verticalAlign=top;spacingLeft=4;spacingRight=4;overflow=hidden;rotatable=0;points=[[0,0.5],[1,0.5]];portConstraint=eastwest;" parent="eS_6kq-HFucETP7qqi-i-121" vertex="1">
          <mxGeometry y="52" width="185" height="26" as="geometry" />
        </mxCell>
        <mxCell id="fZH0zaRF4FUL2NhPZPXz-11" value="Status status" style="text;align=left;verticalAlign=top;spacingLeft=4;spacingRight=4;overflow=hidden;rotatable=0;points=[[0,0.5],[1,0.5]];portConstraint=eastwest;" parent="eS_6kq-HFucETP7qqi-i-121" vertex="1">
          <mxGeometry y="78" width="185" height="26" as="geometry" />
        </mxCell>
        <mxCell id="t1oqon4EwB-zLtlNva9r-7" value="String appointmentId" style="text;align=left;verticalAlign=top;spacingLeft=4;spacingRight=4;overflow=hidden;rotatable=0;points=[[0,0.5],[1,0.5]];portConstraint=eastwest;" vertex="1" parent="eS_6kq-HFucETP7qqi-i-121">
          <mxGeometry y="104" width="185" height="26" as="geometry" />
        </mxCell>
        <mxCell id="eS_6kq-HFucETP7qqi-i-129" value="PredicateBuilder&lt;T&gt;" style="swimlane;fontStyle=2;align=center;verticalAlign=top;childLayout=stackLayout;horizontal=1;startSize=26;horizontalStack=0;resizeParent=1;resizeLast=0;collapsible=1;marginBottom=0;rounded=0;shadow=0;strokeWidth=1;" parent="WIyWlLk6GJQsqaUBKTNV-1" vertex="1">
          <mxGeometry x="-190" y="-1162" width="220" height="86" as="geometry">
            <mxRectangle x="230" y="140" width="160" height="26" as="alternateBounds" />
          </mxGeometry>
        </mxCell>
        <mxCell id="eS_6kq-HFucETP7qqi-i-130" value="BooleanExpression getBooleanBuilder&#xa;(SimpleExpression&lt;T&gt; path, &#xa;SearchCriteria searchCriteria)" style="text;align=left;verticalAlign=top;spacingLeft=4;spacingRight=4;overflow=hidden;rotatable=0;points=[[0,0.5],[1,0.5]];portConstraint=eastwest;fillColor=none;" parent="eS_6kq-HFucETP7qqi-i-129" vertex="1">
          <mxGeometry y="26" width="220" height="54" as="geometry" />
        </mxCell>
        <mxCell id="eS_6kq-HFucETP7qqi-i-131" value="QueryField" style="swimlane;fontStyle=2;align=center;verticalAlign=top;childLayout=stackLayout;horizontal=1;startSize=26;horizontalStack=0;resizeParent=1;resizeLast=0;collapsible=1;marginBottom=0;rounded=0;shadow=0;strokeWidth=1;fillColor=#fff2cc;strokeColor=#d6b656;" parent="WIyWlLk6GJQsqaUBKTNV-1" vertex="1">
          <mxGeometry x="-780" y="-1172" width="220" height="106" as="geometry">
            <mxRectangle x="230" y="140" width="160" height="26" as="alternateBounds" />
          </mxGeometry>
        </mxCell>
        <mxCell id="eS_6kq-HFucETP7qqi-i-132" value="String getFieldName()" style="text;align=left;verticalAlign=top;spacingLeft=4;spacingRight=4;overflow=hidden;rotatable=0;points=[[0,0.5],[1,0.5]];portConstraint=eastwest;fillColor=none;" parent="eS_6kq-HFucETP7qqi-i-131" vertex="1">
          <mxGeometry y="26" width="220" height="24" as="geometry" />
        </mxCell>
        <mxCell id="eS_6kq-HFucETP7qqi-i-133" value="void addToQuery(BooleanBuilder &#xa;booleanBuilder, SearchCriteria &#xa;searchCriteria)" style="text;align=left;verticalAlign=top;spacingLeft=4;spacingRight=4;overflow=hidden;rotatable=0;points=[[0,0.5],[1,0.5]];portConstraint=eastwest;fillColor=none;" parent="eS_6kq-HFucETP7qqi-i-131" vertex="1">
          <mxGeometry y="50" width="220" height="50" as="geometry" />
        </mxCell>
        <mxCell id="eS_6kq-HFucETP7qqi-i-246" style="edgeStyle=orthogonalEdgeStyle;rounded=0;orthogonalLoop=1;jettySize=auto;html=1;entryX=0;entryY=0.5;entryDx=0;entryDy=0;" parent="WIyWlLk6GJQsqaUBKTNV-1" source="eS_6kq-HFucETP7qqi-i-137" target="eS_6kq-HFucETP7qqi-i-130" edge="1">
          <mxGeometry relative="1" as="geometry">
            <mxPoint x="-204" y="-919" as="targetPoint" />
            <Array as="points">
              <mxPoint x="-230" y="-997" />
              <mxPoint x="-230" y="-1109" />
            </Array>
          </mxGeometry>
        </mxCell>
        <mxCell id="eS_6kq-HFucETP7qqi-i-137" value="InvoiceOrderStatusField" style="swimlane;fontStyle=2;align=center;verticalAlign=top;childLayout=stackLayout;horizontal=1;startSize=26;horizontalStack=0;resizeParent=1;resizeLast=0;collapsible=1;marginBottom=0;rounded=0;shadow=0;strokeWidth=1;" parent="WIyWlLk6GJQsqaUBKTNV-1" vertex="1">
          <mxGeometry x="-508" y="-1062" width="240" height="130" as="geometry">
            <mxRectangle x="230" y="140" width="160" height="26" as="alternateBounds" />
          </mxGeometry>
        </mxCell>
        <mxCell id="eS_6kq-HFucETP7qqi-i-138" value="PredicateBuilder&lt;String&gt; predicateBuilder" style="text;align=left;verticalAlign=top;spacingLeft=4;spacingRight=4;overflow=hidden;rotatable=0;points=[[0,0.5],[1,0.5]];portConstraint=eastwest;fillColor=none;" parent="eS_6kq-HFucETP7qqi-i-137" vertex="1">
          <mxGeometry y="26" width="240" height="22" as="geometry" />
        </mxCell>
        <mxCell id="eS_6kq-HFucETP7qqi-i-139" value="" style="line;html=1;strokeWidth=1;align=left;verticalAlign=middle;spacingTop=-1;spacingLeft=3;spacingRight=3;rotatable=0;labelPosition=right;points=[];portConstraint=eastwest;" parent="eS_6kq-HFucETP7qqi-i-137" vertex="1">
          <mxGeometry y="48" width="240" height="8" as="geometry" />
        </mxCell>
        <mxCell id="eS_6kq-HFucETP7qqi-i-135" value="String getFieldName()" style="text;align=left;verticalAlign=top;spacingLeft=4;spacingRight=4;overflow=hidden;rotatable=0;points=[[0,0.5],[1,0.5]];portConstraint=eastwest;fillColor=none;" parent="eS_6kq-HFucETP7qqi-i-137" vertex="1">
          <mxGeometry y="56" width="240" height="24" as="geometry" />
        </mxCell>
        <mxCell id="eS_6kq-HFucETP7qqi-i-136" value="void addToQuery(BooleanBuilder &#xa;booleanBuilder, SearchCriteria &#xa;searchCriteria)" style="text;align=left;verticalAlign=top;spacingLeft=4;spacingRight=4;overflow=hidden;rotatable=0;points=[[0,0.5],[1,0.5]];portConstraint=eastwest;fillColor=none;" parent="eS_6kq-HFucETP7qqi-i-137" vertex="1">
          <mxGeometry y="80" width="240" height="50" as="geometry" />
        </mxCell>
        <mxCell id="eS_6kq-HFucETP7qqi-i-141" value="InvoiceOrderRepositorySpringJpa" style="swimlane;fontStyle=2;align=center;verticalAlign=top;childLayout=stackLayout;horizontal=1;startSize=26;horizontalStack=0;resizeParent=1;resizeLast=0;collapsible=1;marginBottom=0;rounded=0;shadow=0;strokeWidth=1;fillColor=#fff2cc;strokeColor=#d6b656;" parent="WIyWlLk6GJQsqaUBKTNV-1" vertex="1">
          <mxGeometry x="-1062" y="-1344" width="210" height="52" as="geometry">
            <mxRectangle x="230" y="140" width="160" height="26" as="alternateBounds" />
          </mxGeometry>
        </mxCell>
        <mxCell id="eS_6kq-HFucETP7qqi-i-256" style="edgeStyle=orthogonalEdgeStyle;rounded=0;orthogonalLoop=1;jettySize=auto;html=1;entryX=0.5;entryY=0;entryDx=0;entryDy=0;" parent="WIyWlLk6GJQsqaUBKTNV-1" source="eS_6kq-HFucETP7qqi-i-143" target="eS_6kq-HFucETP7qqi-i-113" edge="1">
          <mxGeometry relative="1" as="geometry" />
        </mxCell>
        <mxCell id="eS_6kq-HFucETP7qqi-i-257" style="edgeStyle=orthogonalEdgeStyle;rounded=0;orthogonalLoop=1;jettySize=auto;html=1;" parent="WIyWlLk6GJQsqaUBKTNV-1" source="eS_6kq-HFucETP7qqi-i-143" target="eS_6kq-HFucETP7qqi-i-105" edge="1">
          <mxGeometry relative="1" as="geometry" />
        </mxCell>
        <mxCell id="eS_6kq-HFucETP7qqi-i-258" style="edgeStyle=orthogonalEdgeStyle;rounded=0;orthogonalLoop=1;jettySize=auto;html=1;" parent="WIyWlLk6GJQsqaUBKTNV-1" source="eS_6kq-HFucETP7qqi-i-143" target="eS_6kq-HFucETP7qqi-i-82" edge="1">
          <mxGeometry relative="1" as="geometry" />
        </mxCell>
        <mxCell id="eS_6kq-HFucETP7qqi-i-260" style="edgeStyle=orthogonalEdgeStyle;rounded=0;orthogonalLoop=1;jettySize=auto;html=1;" parent="WIyWlLk6GJQsqaUBKTNV-1" source="eS_6kq-HFucETP7qqi-i-143" target="eS_6kq-HFucETP7qqi-i-121" edge="1">
          <mxGeometry relative="1" as="geometry" />
        </mxCell>
        <mxCell id="eS_6kq-HFucETP7qqi-i-143" value="InvoiceOrderInfrastructureMapper" style="swimlane;fontStyle=2;align=center;verticalAlign=top;childLayout=stackLayout;horizontal=1;startSize=26;horizontalStack=0;resizeParent=1;resizeLast=0;collapsible=1;marginBottom=0;rounded=0;shadow=0;strokeWidth=1;fillColor=default;" parent="WIyWlLk6GJQsqaUBKTNV-1" vertex="1">
          <mxGeometry x="-2260" y="-1940" width="400" height="260" as="geometry">
            <mxRectangle x="230" y="140" width="160" height="26" as="alternateBounds" />
          </mxGeometry>
        </mxCell>
        <mxCell id="eS_6kq-HFucETP7qqi-i-145" value="InvoiceOrder map(InvoiceOrderApiModel InvoiceOrderApiModel);" style="text;align=left;verticalAlign=top;spacingLeft=4;spacingRight=4;overflow=hidden;rotatable=0;points=[[0,0.5],[1,0.5]];portConstraint=eastwest;fillColor=none;" parent="eS_6kq-HFucETP7qqi-i-143" vertex="1">
          <mxGeometry y="26" width="400" height="30" as="geometry" />
        </mxCell>
        <mxCell id="eS_6kq-HFucETP7qqi-i-146" value="List&lt;InvoiceOrderApiModel&gt; map(List&lt;InvoiceOrder&gt; invoiceOrders);" style="text;align=left;verticalAlign=top;spacingLeft=4;spacingRight=4;overflow=hidden;rotatable=0;points=[[0,0.5],[1,0.5]];portConstraint=eastwest;fillColor=none;" parent="eS_6kq-HFucETP7qqi-i-143" vertex="1">
          <mxGeometry y="56" width="400" height="30" as="geometry" />
        </mxCell>
        <mxCell id="eS_6kq-HFucETP7qqi-i-148" value="InvoiceOrderApiModel map(InvoiceOrder InvoiceOrders);" style="text;align=left;verticalAlign=top;spacingLeft=4;spacingRight=4;overflow=hidden;rotatable=0;points=[[0,0.5],[1,0.5]];portConstraint=eastwest;fillColor=none;" parent="eS_6kq-HFucETP7qqi-i-143" vertex="1">
          <mxGeometry y="86" width="400" height="30" as="geometry" />
        </mxCell>
        <mxCell id="eS_6kq-HFucETP7qqi-i-147" value="List&lt;InvoiceOrder&gt; mapEntityList(List&lt;InvoiceOrderEntity&gt; &#xa;invoiceOrderEntity);" style="text;align=left;verticalAlign=top;spacingLeft=4;spacingRight=4;overflow=hidden;rotatable=0;points=[[0,0.5],[1,0.5]];portConstraint=eastwest;fillColor=none;" parent="eS_6kq-HFucETP7qqi-i-143" vertex="1">
          <mxGeometry y="116" width="400" height="40" as="geometry" />
        </mxCell>
        <mxCell id="eS_6kq-HFucETP7qqi-i-149" value="InvoiceOrder map(InvoiceOrderEntity invoiceOrderEntity);" style="text;align=left;verticalAlign=top;spacingLeft=4;spacingRight=4;overflow=hidden;rotatable=0;points=[[0,0.5],[1,0.5]];portConstraint=eastwest;fillColor=none;" parent="eS_6kq-HFucETP7qqi-i-143" vertex="1">
          <mxGeometry y="156" width="400" height="30" as="geometry" />
        </mxCell>
        <mxCell id="eS_6kq-HFucETP7qqi-i-150" value="InvoiceOrderEntity mapToEntity(InvoiceOrder invoiceOrder);" style="text;align=left;verticalAlign=top;spacingLeft=4;spacingRight=4;overflow=hidden;rotatable=0;points=[[0,0.5],[1,0.5]];portConstraint=eastwest;fillColor=none;" parent="eS_6kq-HFucETP7qqi-i-143" vertex="1">
          <mxGeometry y="186" width="400" height="30" as="geometry" />
        </mxCell>
        <mxCell id="eS_6kq-HFucETP7qqi-i-151" value="InvoiceOrder merge(InvoiceOrder newInvoiceOrderData, &#xa;InvoiceOrder invoiceOrder);" style="text;align=left;verticalAlign=top;spacingLeft=4;spacingRight=4;overflow=hidden;rotatable=0;points=[[0,0.5],[1,0.5]];portConstraint=eastwest;fillColor=none;" parent="eS_6kq-HFucETP7qqi-i-143" vertex="1">
          <mxGeometry y="216" width="400" height="30" as="geometry" />
        </mxCell>
        <mxCell id="eS_6kq-HFucETP7qqi-i-197" style="edgeStyle=orthogonalEdgeStyle;rounded=0;orthogonalLoop=1;jettySize=auto;html=1;entryX=0.5;entryY=1;entryDx=0;entryDy=0;endArrow=none;endFill=0;" parent="WIyWlLk6GJQsqaUBKTNV-1" source="eS_6kq-HFucETP7qqi-i-153" target="eS_6kq-HFucETP7qqi-i-141" edge="1">
          <mxGeometry relative="1" as="geometry" />
        </mxCell>
        <mxCell id="eS_6kq-HFucETP7qqi-i-237" style="edgeStyle=orthogonalEdgeStyle;rounded=0;orthogonalLoop=1;jettySize=auto;html=1;entryX=0;entryY=0.5;entryDx=0;entryDy=0;" parent="WIyWlLk6GJQsqaUBKTNV-1" source="eS_6kq-HFucETP7qqi-i-153" target="eS_6kq-HFucETP7qqi-i-133" edge="1">
          <mxGeometry relative="1" as="geometry" />
        </mxCell>
        <mxCell id="eS_6kq-HFucETP7qqi-i-153" value="InvoiceOrderJpaRepository" style="swimlane;fontStyle=2;align=center;verticalAlign=top;childLayout=stackLayout;horizontal=1;startSize=26;horizontalStack=0;resizeParent=1;resizeLast=0;collapsible=1;marginBottom=0;rounded=0;shadow=0;strokeWidth=1;" parent="WIyWlLk6GJQsqaUBKTNV-1" vertex="1">
          <mxGeometry x="-1077" y="-1262" width="267" height="334" as="geometry">
            <mxRectangle x="230" y="140" width="160" height="26" as="alternateBounds" />
          </mxGeometry>
        </mxCell>
        <mxCell id="eS_6kq-HFucETP7qqi-i-154" value="List&lt;QueryField&gt; queryFields" style="text;align=left;verticalAlign=top;spacingLeft=4;spacingRight=4;overflow=hidden;rotatable=0;points=[[0,0.5],[1,0.5]];portConstraint=eastwest;fillColor=none;" parent="eS_6kq-HFucETP7qqi-i-153" vertex="1">
          <mxGeometry y="26" width="267" height="26" as="geometry" />
        </mxCell>
        <mxCell id="eS_6kq-HFucETP7qqi-i-157" value="Map&lt;String, QueryField&gt; queryFieldMap" style="text;align=left;verticalAlign=top;spacingLeft=4;spacingRight=4;overflow=hidden;rotatable=0;points=[[0,0.5],[1,0.5]];portConstraint=eastwest;fillColor=none;" parent="eS_6kq-HFucETP7qqi-i-153" vertex="1">
          <mxGeometry y="52" width="267" height="26" as="geometry" />
        </mxCell>
        <mxCell id="eS_6kq-HFucETP7qqi-i-158" value=" InvoiceOrderRepositorySpringJpa &#xa;InvoiceOrderRepositorySpringJpa" style="text;align=left;verticalAlign=top;spacingLeft=4;spacingRight=4;overflow=hidden;rotatable=0;points=[[0,0.5],[1,0.5]];portConstraint=eastwest;fillColor=none;" parent="eS_6kq-HFucETP7qqi-i-153" vertex="1">
          <mxGeometry y="78" width="267" height="42" as="geometry" />
        </mxCell>
        <mxCell id="eS_6kq-HFucETP7qqi-i-159" value="InvoiceOrderInfrastructureMapper mapper" style="text;align=left;verticalAlign=top;spacingLeft=4;spacingRight=4;overflow=hidden;rotatable=0;points=[[0,0.5],[1,0.5]];portConstraint=eastwest;fillColor=none;" parent="eS_6kq-HFucETP7qqi-i-153" vertex="1">
          <mxGeometry y="120" width="267" height="42" as="geometry" />
        </mxCell>
        <mxCell id="eS_6kq-HFucETP7qqi-i-155" value="" style="line;html=1;strokeWidth=1;align=left;verticalAlign=middle;spacingTop=-1;spacingLeft=3;spacingRight=3;rotatable=0;labelPosition=right;points=[];portConstraint=eastwest;" parent="eS_6kq-HFucETP7qqi-i-153" vertex="1">
          <mxGeometry y="162" width="267" height="8" as="geometry" />
        </mxCell>
        <mxCell id="eS_6kq-HFucETP7qqi-i-156" value="save(InvoiceOrder InvoiceOrder)" style="text;align=left;verticalAlign=top;spacingLeft=4;spacingRight=4;overflow=hidden;rotatable=0;points=[[0,0.5],[1,0.5]];portConstraint=eastwest;" parent="eS_6kq-HFucETP7qqi-i-153" vertex="1">
          <mxGeometry y="170" width="267" height="26" as="geometry" />
        </mxCell>
        <mxCell id="eS_6kq-HFucETP7qqi-i-162" value="void deleteById(String id)" style="text;align=left;verticalAlign=top;spacingLeft=4;spacingRight=4;overflow=hidden;rotatable=0;points=[[0,0.5],[1,0.5]];portConstraint=eastwest;fillColor=none;" parent="eS_6kq-HFucETP7qqi-i-153" vertex="1">
          <mxGeometry y="196" width="267" height="26" as="geometry" />
        </mxCell>
        <mxCell id="eS_6kq-HFucETP7qqi-i-161" value="Optional&lt;InvoiceOrder&gt; &#xa;findById(String id)" style="text;align=left;verticalAlign=top;spacingLeft=4;spacingRight=4;overflow=hidden;rotatable=0;points=[[0,0.5],[1,0.5]];portConstraint=eastwest;fillColor=none;" parent="eS_6kq-HFucETP7qqi-i-153" vertex="1">
          <mxGeometry y="222" width="267" height="40" as="geometry" />
        </mxCell>
        <mxCell id="eS_6kq-HFucETP7qqi-i-163" value="InvoiceOrder merge(InvoiceOrder newInvoiceOrder, InvoiceOrder InvoiceOrder)" style="text;align=left;verticalAlign=top;spacingLeft=4;spacingRight=4;overflow=hidden;rotatable=0;points=[[0,0.5],[1,0.5]];portConstraint=eastwest;fillColor=none;" parent="eS_6kq-HFucETP7qqi-i-153" vertex="1">
          <mxGeometry y="262" width="267" height="28" as="geometry" />
        </mxCell>
        <mxCell id="eS_6kq-HFucETP7qqi-i-160" value="List&lt;InvoiceOrder&gt; findByCriteria&#xa;(List&lt;SearchCriteria&gt; filters)" style="text;align=left;verticalAlign=top;spacingLeft=4;spacingRight=4;overflow=hidden;rotatable=0;points=[[0,0.5],[1,0.5]];portConstraint=eastwest;fillColor=none;" parent="eS_6kq-HFucETP7qqi-i-153" vertex="1">
          <mxGeometry y="290" width="267" height="44" as="geometry" />
        </mxCell>
        <mxCell id="Q-hC3Mq2sGvMtCFczJsx-145" style="edgeStyle=orthogonalEdgeStyle;rounded=0;orthogonalLoop=1;jettySize=auto;html=1;entryX=0;entryY=0.5;entryDx=0;entryDy=0;" parent="WIyWlLk6GJQsqaUBKTNV-1" source="eS_6kq-HFucETP7qqi-i-164" target="Q-hC3Mq2sGvMtCFczJsx-107" edge="1">
          <mxGeometry relative="1" as="geometry" />
        </mxCell>
        <mxCell id="eS_6kq-HFucETP7qqi-i-164" value="InvoiceOrderController" style="swimlane;fontStyle=2;align=center;verticalAlign=top;childLayout=stackLayout;horizontal=1;startSize=26;horizontalStack=0;resizeParent=1;resizeLast=0;collapsible=1;marginBottom=0;rounded=0;shadow=0;strokeWidth=1;" parent="WIyWlLk6GJQsqaUBKTNV-1" vertex="1">
          <mxGeometry x="-2770" y="-1300" width="310" height="410" as="geometry">
            <mxRectangle x="230" y="140" width="160" height="26" as="alternateBounds" />
          </mxGeometry>
        </mxCell>
        <mxCell id="eS_6kq-HFucETP7qqi-i-168" value="InvoiceOrderInfrastructureMapper mapper" style="text;align=left;verticalAlign=top;spacingLeft=4;spacingRight=4;overflow=hidden;rotatable=0;points=[[0,0.5],[1,0.5]];portConstraint=eastwest;fillColor=none;" parent="eS_6kq-HFucETP7qqi-i-164" vertex="1">
          <mxGeometry y="26" width="310" height="24" as="geometry" />
        </mxCell>
        <mxCell id="eS_6kq-HFucETP7qqi-i-166" value="FindInvoiceOrdersUseCase findInvoiceOrdersUseCase" style="text;align=left;verticalAlign=top;spacingLeft=4;spacingRight=4;overflow=hidden;rotatable=0;points=[[0,0.5],[1,0.5]];portConstraint=eastwest;fillColor=none;" parent="eS_6kq-HFucETP7qqi-i-164" vertex="1">
          <mxGeometry y="50" width="310" height="26" as="geometry" />
        </mxCell>
        <mxCell id="eS_6kq-HFucETP7qqi-i-167" value="GetInvoiceOrderByIdUseCase getInvoiceOrder&#xa;ByIdUseCase" style="text;align=left;verticalAlign=top;spacingLeft=4;spacingRight=4;overflow=hidden;rotatable=0;points=[[0,0.5],[1,0.5]];portConstraint=eastwest;fillColor=none;" parent="eS_6kq-HFucETP7qqi-i-164" vertex="1">
          <mxGeometry y="76" width="310" height="44" as="geometry" />
        </mxCell>
        <mxCell id="eS_6kq-HFucETP7qqi-i-175" value="DeleteInvoiceOrderUseCase deleteInvoiceOrderUseCase" style="text;align=left;verticalAlign=top;spacingLeft=4;spacingRight=4;overflow=hidden;rotatable=0;points=[[0,0.5],[1,0.5]];portConstraint=eastwest;fillColor=none;" parent="eS_6kq-HFucETP7qqi-i-164" vertex="1">
          <mxGeometry y="120" width="310" height="30" as="geometry" />
        </mxCell>
        <mxCell id="eS_6kq-HFucETP7qqi-i-176" value="CreateInvoiceOrderUseCase createInvoiceOrderUseCase" style="text;align=left;verticalAlign=top;spacingLeft=4;spacingRight=4;overflow=hidden;rotatable=0;points=[[0,0.5],[1,0.5]];portConstraint=eastwest;fillColor=none;" parent="eS_6kq-HFucETP7qqi-i-164" vertex="1">
          <mxGeometry y="150" width="310" height="30" as="geometry" />
        </mxCell>
        <mxCell id="eS_6kq-HFucETP7qqi-i-177" value="ModifyInvoiceOrdersUseCase modifyInvoiceOrdersUseCase" style="text;align=left;verticalAlign=top;spacingLeft=4;spacingRight=4;overflow=hidden;rotatable=0;points=[[0,0.5],[1,0.5]];portConstraint=eastwest;fillColor=none;" parent="eS_6kq-HFucETP7qqi-i-164" vertex="1">
          <mxGeometry y="180" width="310" height="32" as="geometry" />
        </mxCell>
        <mxCell id="eS_6kq-HFucETP7qqi-i-169" value="" style="line;html=1;strokeWidth=1;align=left;verticalAlign=middle;spacingTop=-1;spacingLeft=3;spacingRight=3;rotatable=0;labelPosition=right;points=[];portConstraint=eastwest;" parent="eS_6kq-HFucETP7qqi-i-164" vertex="1">
          <mxGeometry y="212" width="310" height="8" as="geometry" />
        </mxCell>
        <mxCell id="eS_6kq-HFucETP7qqi-i-170" value="save(InvoiceOrderApiModel invoiceOrder)" style="text;align=left;verticalAlign=top;spacingLeft=4;spacingRight=4;overflow=hidden;rotatable=0;points=[[0,0.5],[1,0.5]];portConstraint=eastwest;" parent="eS_6kq-HFucETP7qqi-i-164" vertex="1">
          <mxGeometry y="220" width="310" height="26" as="geometry" />
        </mxCell>
        <mxCell id="eS_6kq-HFucETP7qqi-i-171" value="void deleteById(String id);" style="text;align=left;verticalAlign=top;spacingLeft=4;spacingRight=4;overflow=hidden;rotatable=0;points=[[0,0.5],[1,0.5]];portConstraint=eastwest;fillColor=none;" parent="eS_6kq-HFucETP7qqi-i-164" vertex="1">
          <mxGeometry y="246" width="310" height="26" as="geometry" />
        </mxCell>
        <mxCell id="eS_6kq-HFucETP7qqi-i-172" value="Optional&lt;InvoiceOrder&gt; &#xa;findById(String id);" style="text;align=left;verticalAlign=top;spacingLeft=4;spacingRight=4;overflow=hidden;rotatable=0;points=[[0,0.5],[1,0.5]];portConstraint=eastwest;fillColor=none;" parent="eS_6kq-HFucETP7qqi-i-164" vertex="1">
          <mxGeometry y="272" width="310" height="40" as="geometry" />
        </mxCell>
        <mxCell id="eS_6kq-HFucETP7qqi-i-173" value="InvoiceOrder merge(InvoiceOrderApiModel&#xa;newInvoiceOrder, InvoiceOrder invoiceOrder);" style="text;align=left;verticalAlign=top;spacingLeft=4;spacingRight=4;overflow=hidden;rotatable=0;points=[[0,0.5],[1,0.5]];portConstraint=eastwest;fillColor=none;" parent="eS_6kq-HFucETP7qqi-i-164" vertex="1">
          <mxGeometry y="312" width="310" height="48" as="geometry" />
        </mxCell>
        <mxCell id="eS_6kq-HFucETP7qqi-i-174" value="List&lt;InvoiceOrder&gt; findByCriteria&#xa;(List&lt;SearchCriteria&gt; filters);" style="text;align=left;verticalAlign=top;spacingLeft=4;spacingRight=4;overflow=hidden;rotatable=0;points=[[0,0.5],[1,0.5]];portConstraint=eastwest;fillColor=none;" parent="eS_6kq-HFucETP7qqi-i-164" vertex="1">
          <mxGeometry y="360" width="310" height="50" as="geometry" />
        </mxCell>
        <mxCell id="eS_6kq-HFucETP7qqi-i-183" style="edgeStyle=orthogonalEdgeStyle;rounded=0;orthogonalLoop=1;jettySize=auto;html=1;entryX=0;entryY=0.5;entryDx=0;entryDy=0;startArrow=block;startFill=0;endArrow=none;endFill=0;" parent="WIyWlLk6GJQsqaUBKTNV-1" target="eS_6kq-HFucETP7qqi-i-11" edge="1">
          <mxGeometry relative="1" as="geometry">
            <mxPoint x="-2110.0000000000005" y="-1047" as="sourcePoint" />
            <mxPoint x="-2025.1039999999998" y="-1008.0680000000002" as="targetPoint" />
          </mxGeometry>
        </mxCell>
        <mxCell id="eS_6kq-HFucETP7qqi-i-184" style="edgeStyle=orthogonalEdgeStyle;rounded=0;orthogonalLoop=1;jettySize=auto;html=1;entryX=-0.005;entryY=-0.112;entryDx=0;entryDy=0;entryPerimeter=0;startArrow=block;startFill=0;endArrow=none;endFill=0;" parent="WIyWlLk6GJQsqaUBKTNV-1" source="eS_6kq-HFucETP7qqi-i-30" target="eS_6kq-HFucETP7qqi-i-9" edge="1">
          <mxGeometry relative="1" as="geometry" />
        </mxCell>
        <mxCell id="eS_6kq-HFucETP7qqi-i-185" style="edgeStyle=orthogonalEdgeStyle;rounded=0;orthogonalLoop=1;jettySize=auto;html=1;entryX=-0.003;entryY=-0.051;entryDx=0;entryDy=0;entryPerimeter=0;startArrow=block;startFill=0;endArrow=none;endFill=0;" parent="WIyWlLk6GJQsqaUBKTNV-1" source="eS_6kq-HFucETP7qqi-i-26" target="eS_6kq-HFucETP7qqi-i-5" edge="1">
          <mxGeometry relative="1" as="geometry" />
        </mxCell>
        <mxCell id="eS_6kq-HFucETP7qqi-i-190" style="edgeStyle=orthogonalEdgeStyle;rounded=0;orthogonalLoop=1;jettySize=auto;html=1;exitX=1;exitY=0.5;exitDx=0;exitDy=0;entryX=0;entryY=0.5;entryDx=0;entryDy=0;" parent="WIyWlLk6GJQsqaUBKTNV-1" source="eS_6kq-HFucETP7qqi-i-168" target="eS_6kq-HFucETP7qqi-i-43" edge="1">
          <mxGeometry relative="1" as="geometry" />
        </mxCell>
        <mxCell id="eS_6kq-HFucETP7qqi-i-198" style="edgeStyle=orthogonalEdgeStyle;rounded=0;orthogonalLoop=1;jettySize=auto;html=1;entryX=-0.007;entryY=0.7;entryDx=0;entryDy=0;entryPerimeter=0;startArrow=block;startFill=0;endArrow=none;endFill=0;exitX=1.001;exitY=0.214;exitDx=0;exitDy=0;exitPerimeter=0;" parent="WIyWlLk6GJQsqaUBKTNV-1" source="ApyK9dZCyS79xW809X-P-88" target="eS_6kq-HFucETP7qqi-i-159" edge="1">
          <mxGeometry relative="1" as="geometry">
            <mxPoint x="-1190" y="-1122" as="sourcePoint" />
          </mxGeometry>
        </mxCell>
        <mxCell id="eS_6kq-HFucETP7qqi-i-204" style="edgeStyle=orthogonalEdgeStyle;rounded=0;orthogonalLoop=1;jettySize=auto;html=1;entryX=0.539;entryY=0.001;entryDx=0;entryDy=0;entryPerimeter=0;endArrow=none;endFill=0;startArrow=classic;startFill=1;" parent="WIyWlLk6GJQsqaUBKTNV-1" source="eS_6kq-HFucETP7qqi-i-113" target="eS_6kq-HFucETP7qqi-i-164" edge="1">
          <mxGeometry relative="1" as="geometry" />
        </mxCell>
        <mxCell id="eS_6kq-HFucETP7qqi-i-205" style="edgeStyle=orthogonalEdgeStyle;rounded=0;orthogonalLoop=1;jettySize=auto;html=1;entryX=0.539;entryY=0.009;entryDx=0;entryDy=0;entryPerimeter=0;startArrow=classic;startFill=1;endArrow=none;endFill=0;" parent="WIyWlLk6GJQsqaUBKTNV-1" source="eS_6kq-HFucETP7qqi-i-105" target="eS_6kq-HFucETP7qqi-i-164" edge="1">
          <mxGeometry relative="1" as="geometry" />
        </mxCell>
        <mxCell id="ApyK9dZCyS79xW809X-P-50" style="edgeStyle=orthogonalEdgeStyle;rounded=0;orthogonalLoop=1;jettySize=auto;html=1;entryX=1;entryY=0.5;entryDx=0;entryDy=0;endArrow=block;endFill=0;" parent="WIyWlLk6GJQsqaUBKTNV-1" source="eS_6kq-HFucETP7qqi-i-222" target="eS_6kq-HFucETP7qqi-i-133" edge="1">
          <mxGeometry relative="1" as="geometry" />
        </mxCell>
        <mxCell id="eS_6kq-HFucETP7qqi-i-222" value="InvoiceOrderEndDateField" style="swimlane;fontStyle=2;align=center;verticalAlign=top;childLayout=stackLayout;horizontal=1;startSize=26;horizontalStack=0;resizeParent=1;resizeLast=0;collapsible=1;marginBottom=0;rounded=0;shadow=0;strokeWidth=1;" parent="WIyWlLk6GJQsqaUBKTNV-1" vertex="1">
          <mxGeometry x="-510" y="-1206" width="240" height="130" as="geometry">
            <mxRectangle x="230" y="140" width="160" height="26" as="alternateBounds" />
          </mxGeometry>
        </mxCell>
        <mxCell id="eS_6kq-HFucETP7qqi-i-223" value="PredicateBuilder&lt;String&gt; predicateBuilder" style="text;align=left;verticalAlign=top;spacingLeft=4;spacingRight=4;overflow=hidden;rotatable=0;points=[[0,0.5],[1,0.5]];portConstraint=eastwest;fillColor=none;" parent="eS_6kq-HFucETP7qqi-i-222" vertex="1">
          <mxGeometry y="26" width="240" height="22" as="geometry" />
        </mxCell>
        <mxCell id="eS_6kq-HFucETP7qqi-i-224" value="" style="line;html=1;strokeWidth=1;align=left;verticalAlign=middle;spacingTop=-1;spacingLeft=3;spacingRight=3;rotatable=0;labelPosition=right;points=[];portConstraint=eastwest;" parent="eS_6kq-HFucETP7qqi-i-222" vertex="1">
          <mxGeometry y="48" width="240" height="8" as="geometry" />
        </mxCell>
        <mxCell id="eS_6kq-HFucETP7qqi-i-225" value="String getFieldName()" style="text;align=left;verticalAlign=top;spacingLeft=4;spacingRight=4;overflow=hidden;rotatable=0;points=[[0,0.5],[1,0.5]];portConstraint=eastwest;fillColor=none;" parent="eS_6kq-HFucETP7qqi-i-222" vertex="1">
          <mxGeometry y="56" width="240" height="24" as="geometry" />
        </mxCell>
        <mxCell id="eS_6kq-HFucETP7qqi-i-226" value="void addToQuery(BooleanBuilder &#xa;booleanBuilder, SearchCriteria &#xa;searchCriteria)" style="text;align=left;verticalAlign=top;spacingLeft=4;spacingRight=4;overflow=hidden;rotatable=0;points=[[0,0.5],[1,0.5]];portConstraint=eastwest;fillColor=none;" parent="eS_6kq-HFucETP7qqi-i-222" vertex="1">
          <mxGeometry y="80" width="240" height="50" as="geometry" />
        </mxCell>
        <mxCell id="eS_6kq-HFucETP7qqi-i-232" value="InvoiceOrderStartDateField" style="swimlane;fontStyle=2;align=center;verticalAlign=top;childLayout=stackLayout;horizontal=1;startSize=26;horizontalStack=0;resizeParent=1;resizeLast=0;collapsible=1;marginBottom=0;rounded=0;shadow=0;strokeWidth=1;" parent="WIyWlLk6GJQsqaUBKTNV-1" vertex="1">
          <mxGeometry x="-510" y="-1352" width="240" height="130" as="geometry">
            <mxRectangle x="230" y="140" width="160" height="26" as="alternateBounds" />
          </mxGeometry>
        </mxCell>
        <mxCell id="eS_6kq-HFucETP7qqi-i-233" value="PredicateBuilder&lt;String&gt; predicateBuilder" style="text;align=left;verticalAlign=top;spacingLeft=4;spacingRight=4;overflow=hidden;rotatable=0;points=[[0,0.5],[1,0.5]];portConstraint=eastwest;fillColor=none;" parent="eS_6kq-HFucETP7qqi-i-232" vertex="1">
          <mxGeometry y="26" width="240" height="22" as="geometry" />
        </mxCell>
        <mxCell id="eS_6kq-HFucETP7qqi-i-234" value="" style="line;html=1;strokeWidth=1;align=left;verticalAlign=middle;spacingTop=-1;spacingLeft=3;spacingRight=3;rotatable=0;labelPosition=right;points=[];portConstraint=eastwest;" parent="eS_6kq-HFucETP7qqi-i-232" vertex="1">
          <mxGeometry y="48" width="240" height="8" as="geometry" />
        </mxCell>
        <mxCell id="eS_6kq-HFucETP7qqi-i-235" value="String getFieldName()" style="text;align=left;verticalAlign=top;spacingLeft=4;spacingRight=4;overflow=hidden;rotatable=0;points=[[0,0.5],[1,0.5]];portConstraint=eastwest;fillColor=none;" parent="eS_6kq-HFucETP7qqi-i-232" vertex="1">
          <mxGeometry y="56" width="240" height="24" as="geometry" />
        </mxCell>
        <mxCell id="eS_6kq-HFucETP7qqi-i-236" value="void addToQuery(BooleanBuilder &#xa;booleanBuilder, SearchCriteria &#xa;searchCriteria);" style="text;align=left;verticalAlign=top;spacingLeft=4;spacingRight=4;overflow=hidden;rotatable=0;points=[[0,0.5],[1,0.5]];portConstraint=eastwest;fillColor=none;" parent="eS_6kq-HFucETP7qqi-i-232" vertex="1">
          <mxGeometry y="80" width="240" height="50" as="geometry" />
        </mxCell>
        <mxCell id="eS_6kq-HFucETP7qqi-i-238" style="edgeStyle=orthogonalEdgeStyle;rounded=0;orthogonalLoop=1;jettySize=auto;html=1;entryX=-0.011;entryY=0.065;entryDx=0;entryDy=0;entryPerimeter=0;endArrow=none;endFill=0;startArrow=block;startFill=0;" parent="WIyWlLk6GJQsqaUBKTNV-1" target="eS_6kq-HFucETP7qqi-i-236" edge="1">
          <mxGeometry relative="1" as="geometry">
            <Array as="points">
              <mxPoint x="-690" y="-1272" />
              <mxPoint x="-513" y="-1272" />
            </Array>
            <mxPoint x="-690" y="-1172" as="sourcePoint" />
          </mxGeometry>
        </mxCell>
        <mxCell id="eS_6kq-HFucETP7qqi-i-240" style="edgeStyle=orthogonalEdgeStyle;rounded=0;orthogonalLoop=1;jettySize=auto;html=1;entryX=0.007;entryY=0.141;entryDx=0;entryDy=0;entryPerimeter=0;endArrow=none;endFill=0;startArrow=block;startFill=0;exitX=0.5;exitY=1;exitDx=0;exitDy=0;" parent="WIyWlLk6GJQsqaUBKTNV-1" source="eS_6kq-HFucETP7qqi-i-131" target="eS_6kq-HFucETP7qqi-i-136" edge="1">
          <mxGeometry relative="1" as="geometry">
            <Array as="points">
              <mxPoint x="-690" y="-975" />
            </Array>
          </mxGeometry>
        </mxCell>
        <mxCell id="eS_6kq-HFucETP7qqi-i-244" style="edgeStyle=orthogonalEdgeStyle;rounded=0;orthogonalLoop=1;jettySize=auto;html=1;entryX=0;entryY=0.5;entryDx=0;entryDy=0;" parent="WIyWlLk6GJQsqaUBKTNV-1" source="eS_6kq-HFucETP7qqi-i-236" target="eS_6kq-HFucETP7qqi-i-130" edge="1">
          <mxGeometry relative="1" as="geometry">
            <mxPoint x="-200" y="-1112" as="targetPoint" />
          </mxGeometry>
        </mxCell>
        <mxCell id="eS_6kq-HFucETP7qqi-i-245" style="edgeStyle=orthogonalEdgeStyle;rounded=0;orthogonalLoop=1;jettySize=auto;html=1;entryX=0;entryY=0.5;entryDx=0;entryDy=0;" parent="WIyWlLk6GJQsqaUBKTNV-1" source="eS_6kq-HFucETP7qqi-i-225" target="eS_6kq-HFucETP7qqi-i-130" edge="1">
          <mxGeometry relative="1" as="geometry">
            <mxPoint x="-204" y="-919" as="targetPoint" />
          </mxGeometry>
        </mxCell>
        <mxCell id="eS_6kq-HFucETP7qqi-i-259" style="edgeStyle=orthogonalEdgeStyle;rounded=0;orthogonalLoop=1;jettySize=auto;html=1;entryX=0.446;entryY=0.005;entryDx=0;entryDy=0;entryPerimeter=0;" parent="WIyWlLk6GJQsqaUBKTNV-1" source="eS_6kq-HFucETP7qqi-i-143" target="eS_6kq-HFucETP7qqi-i-89" edge="1">
          <mxGeometry relative="1" as="geometry" />
        </mxCell>
        <mxCell id="eS_6kq-HFucETP7qqi-i-262" style="edgeStyle=orthogonalEdgeStyle;rounded=0;orthogonalLoop=1;jettySize=auto;html=1;endArrow=block;endFill=0;entryX=1.001;entryY=0.733;entryDx=0;entryDy=0;entryPerimeter=0;" parent="WIyWlLk6GJQsqaUBKTNV-1" edge="1">
          <mxGeometry relative="1" as="geometry">
            <mxPoint x="-2050.34" y="-1443.05" as="sourcePoint" />
            <mxPoint x="-2090" y="-1440.992" as="targetPoint" />
            <Array as="points">
              <mxPoint x="-2070.34" y="-1443.05" />
              <mxPoint x="-2070.34" y="-1441.05" />
            </Array>
          </mxGeometry>
        </mxCell>
        <mxCell id="ApyK9dZCyS79xW809X-P-51" value="InvoiceStatus" style="swimlane;fontStyle=2;align=center;verticalAlign=top;childLayout=stackLayout;horizontal=1;startSize=26;horizontalStack=0;resizeParent=1;resizeLast=0;collapsible=1;marginBottom=0;rounded=0;shadow=0;strokeWidth=1;" parent="WIyWlLk6GJQsqaUBKTNV-1" vertex="1">
          <mxGeometry x="-570" y="-1530" width="185" height="130" as="geometry">
            <mxRectangle x="230" y="140" width="160" height="26" as="alternateBounds" />
          </mxGeometry>
        </mxCell>
        <mxCell id="ApyK9dZCyS79xW809X-P-52" value="CREATED" style="text;align=left;verticalAlign=top;spacingLeft=4;spacingRight=4;overflow=hidden;rotatable=0;points=[[0,0.5],[1,0.5]];portConstraint=eastwest;" parent="ApyK9dZCyS79xW809X-P-51" vertex="1">
          <mxGeometry y="26" width="185" height="26" as="geometry" />
        </mxCell>
        <mxCell id="ApyK9dZCyS79xW809X-P-53" value="DELETED" style="text;align=left;verticalAlign=top;spacingLeft=4;spacingRight=4;overflow=hidden;rotatable=0;points=[[0,0.5],[1,0.5]];portConstraint=eastwest;" parent="ApyK9dZCyS79xW809X-P-51" vertex="1">
          <mxGeometry y="52" width="185" height="26" as="geometry" />
        </mxCell>
        <mxCell id="t1oqon4EwB-zLtlNva9r-8" value="SIGNED" style="text;align=left;verticalAlign=top;spacingLeft=4;spacingRight=4;overflow=hidden;rotatable=0;points=[[0,0.5],[1,0.5]];portConstraint=eastwest;" vertex="1" parent="ApyK9dZCyS79xW809X-P-51">
          <mxGeometry y="78" width="185" height="26" as="geometry" />
        </mxCell>
        <mxCell id="ApyK9dZCyS79xW809X-P-54" value="APPROVED" style="text;align=left;verticalAlign=top;spacingLeft=4;spacingRight=4;overflow=hidden;rotatable=0;points=[[0,0.5],[1,0.5]];portConstraint=eastwest;" parent="ApyK9dZCyS79xW809X-P-51" vertex="1">
          <mxGeometry y="104" width="185" height="26" as="geometry" />
        </mxCell>
        <mxCell id="ApyK9dZCyS79xW809X-P-56" style="edgeStyle=orthogonalEdgeStyle;rounded=0;orthogonalLoop=1;jettySize=auto;html=1;entryX=0;entryY=0.5;entryDx=0;entryDy=0;" parent="WIyWlLk6GJQsqaUBKTNV-1" target="ApyK9dZCyS79xW809X-P-53" edge="1">
          <mxGeometry relative="1" as="geometry">
            <mxPoint x="-634.9999999999995" y="-1464.9999999999998" as="sourcePoint" />
          </mxGeometry>
        </mxCell>
        <mxCell id="ApyK9dZCyS79xW809X-P-85" value="GenericRepository&lt;T&gt;" style="swimlane;fontStyle=2;align=center;verticalAlign=top;childLayout=stackLayout;horizontal=1;startSize=26;horizontalStack=0;resizeParent=1;resizeLast=0;collapsible=1;marginBottom=0;rounded=0;shadow=0;strokeWidth=1;fillColor=#fff2cc;strokeColor=#d6b656;" parent="WIyWlLk6GJQsqaUBKTNV-1" vertex="1">
          <mxGeometry x="-1380" y="-1239" width="185" height="240" as="geometry">
            <mxRectangle x="230" y="140" width="160" height="26" as="alternateBounds" />
          </mxGeometry>
        </mxCell>
        <mxCell id="ApyK9dZCyS79xW809X-P-86" value="List&lt;T&gt; findByCriteria&#xa;(List&lt;SearchCriteria&gt; filters)" style="text;align=left;verticalAlign=top;spacingLeft=4;spacingRight=4;overflow=hidden;rotatable=0;points=[[0,0.5],[1,0.5]];portConstraint=eastwest;fillColor=none;" parent="ApyK9dZCyS79xW809X-P-85" vertex="1">
          <mxGeometry y="26" width="185" height="44" as="geometry" />
        </mxCell>
        <mxCell id="ApyK9dZCyS79xW809X-P-87" value="Optional&lt;T&gt; &#xa;findById(String id)" style="text;align=left;verticalAlign=top;spacingLeft=4;spacingRight=4;overflow=hidden;rotatable=0;points=[[0,0.5],[1,0.5]];portConstraint=eastwest;fillColor=none;" parent="ApyK9dZCyS79xW809X-P-85" vertex="1">
          <mxGeometry y="70" width="185" height="40" as="geometry" />
        </mxCell>
        <mxCell id="ApyK9dZCyS79xW809X-P-88" value="void deleteById(String id)" style="text;align=left;verticalAlign=top;spacingLeft=4;spacingRight=4;overflow=hidden;rotatable=0;points=[[0,0.5],[1,0.5]];portConstraint=eastwest;fillColor=none;" parent="ApyK9dZCyS79xW809X-P-85" vertex="1">
          <mxGeometry y="110" width="185" height="26" as="geometry" />
        </mxCell>
        <mxCell id="ApyK9dZCyS79xW809X-P-89" value="Calendar save(T &#xa;entity)" style="text;align=left;verticalAlign=top;spacingLeft=4;spacingRight=4;overflow=hidden;rotatable=0;points=[[0,0.5],[1,0.5]];portConstraint=eastwest;fillColor=none;" parent="ApyK9dZCyS79xW809X-P-85" vertex="1">
          <mxGeometry y="136" width="185" height="30" as="geometry" />
        </mxCell>
        <mxCell id="ApyK9dZCyS79xW809X-P-90" value="Calendar merge(T &#xa;newEntity, T &#xa;entity)" style="text;align=left;verticalAlign=top;spacingLeft=4;spacingRight=4;overflow=hidden;rotatable=0;points=[[0,0.5],[1,0.5]];portConstraint=eastwest;fillColor=none;" parent="ApyK9dZCyS79xW809X-P-85" vertex="1">
          <mxGeometry y="166" width="185" height="60" as="geometry" />
        </mxCell>
        <mxCell id="Q-hC3Mq2sGvMtCFczJsx-112" style="edgeStyle=orthogonalEdgeStyle;rounded=0;orthogonalLoop=1;jettySize=auto;html=1;endArrow=block;endFill=0;" parent="WIyWlLk6GJQsqaUBKTNV-1" source="Q-hC3Mq2sGvMtCFczJsx-0" edge="1">
          <mxGeometry relative="1" as="geometry">
            <mxPoint x="-1610" y="-1140" as="targetPoint" />
            <Array as="points">
              <mxPoint x="-1610" y="-1125" />
              <mxPoint x="-1609" y="-1125" />
              <mxPoint x="-1609" y="-1140" />
            </Array>
          </mxGeometry>
        </mxCell>
        <mxCell id="Q-hC3Mq2sGvMtCFczJsx-0" value="ApachePdfCreatorService" style="swimlane;fontStyle=2;align=center;verticalAlign=top;childLayout=stackLayout;horizontal=1;startSize=26;horizontalStack=0;resizeParent=1;resizeLast=0;collapsible=1;marginBottom=0;rounded=0;shadow=0;strokeWidth=1;" parent="WIyWlLk6GJQsqaUBKTNV-1" vertex="1">
          <mxGeometry x="-1735" y="-1110" width="250" height="70" as="geometry">
            <mxRectangle x="230" y="140" width="160" height="26" as="alternateBounds" />
          </mxGeometry>
        </mxCell>
        <mxCell id="t1oqon4EwB-zLtlNva9r-11" value="createInvoicePdfFile&#xa;(InvoiceData invoiceData)" style="text;align=left;verticalAlign=top;spacingLeft=4;spacingRight=4;overflow=hidden;rotatable=0;points=[[0,0.5],[1,0.5]];portConstraint=eastwest;fillColor=none;" vertex="1" parent="Q-hC3Mq2sGvMtCFczJsx-0">
          <mxGeometry y="26" width="250" height="44" as="geometry" />
        </mxCell>
        <mxCell id="Q-hC3Mq2sGvMtCFczJsx-123" style="edgeStyle=orthogonalEdgeStyle;rounded=0;orthogonalLoop=1;jettySize=auto;html=1;entryX=1;entryY=0.5;entryDx=0;entryDy=0;endArrow=block;endFill=0;" parent="WIyWlLk6GJQsqaUBKTNV-1" source="Q-hC3Mq2sGvMtCFczJsx-11" target="Q-hC3Mq2sGvMtCFczJsx-26" edge="1">
          <mxGeometry relative="1" as="geometry" />
        </mxCell>
        <mxCell id="Q-hC3Mq2sGvMtCFczJsx-11" value="S3Repository" style="swimlane;fontStyle=2;align=center;verticalAlign=top;childLayout=stackLayout;horizontal=1;startSize=26;horizontalStack=0;resizeParent=1;resizeLast=0;collapsible=1;marginBottom=0;rounded=0;shadow=0;strokeWidth=1;" parent="WIyWlLk6GJQsqaUBKTNV-1" vertex="1">
          <mxGeometry x="-1480" y="-870" width="240" height="140" as="geometry">
            <mxRectangle x="230" y="140" width="160" height="26" as="alternateBounds" />
          </mxGeometry>
        </mxCell>
        <mxCell id="Q-hC3Mq2sGvMtCFczJsx-15" value="S3Client s3Client" style="text;align=left;verticalAlign=top;spacingLeft=4;spacingRight=4;overflow=hidden;rotatable=0;points=[[0,0.5],[1,0.5]];portConstraint=eastwest;fillColor=none;" parent="Q-hC3Mq2sGvMtCFczJsx-11" vertex="1">
          <mxGeometry y="26" width="240" height="24" as="geometry" />
        </mxCell>
        <mxCell id="Q-hC3Mq2sGvMtCFczJsx-16" value="" style="line;html=1;strokeWidth=1;align=left;verticalAlign=middle;spacingTop=-1;spacingLeft=3;spacingRight=3;rotatable=0;labelPosition=right;points=[];portConstraint=eastwest;" parent="Q-hC3Mq2sGvMtCFczJsx-11" vertex="1">
          <mxGeometry y="50" width="240" height="8" as="geometry" />
        </mxCell>
        <mxCell id="Q-hC3Mq2sGvMtCFczJsx-17" value="upload(InvoiceOrder InvoiceOrder)" style="text;align=left;verticalAlign=top;spacingLeft=4;spacingRight=4;overflow=hidden;rotatable=0;points=[[0,0.5],[1,0.5]];portConstraint=eastwest;" parent="Q-hC3Mq2sGvMtCFczJsx-11" vertex="1">
          <mxGeometry y="58" width="240" height="26" as="geometry" />
        </mxCell>
        <mxCell id="Q-hC3Mq2sGvMtCFczJsx-18" value="deleteInvoice(String id)" style="text;align=left;verticalAlign=top;spacingLeft=4;spacingRight=4;overflow=hidden;rotatable=0;points=[[0,0.5],[1,0.5]];portConstraint=eastwest;fillColor=none;" parent="Q-hC3Mq2sGvMtCFczJsx-11" vertex="1">
          <mxGeometry y="84" width="240" height="26" as="geometry" />
        </mxCell>
        <mxCell id="Q-hC3Mq2sGvMtCFczJsx-136" value="downloadInvoice(String invoiceId)" style="text;align=left;verticalAlign=top;spacingLeft=4;spacingRight=4;overflow=hidden;rotatable=0;points=[[0,0.5],[1,0.5]];portConstraint=eastwest;fillColor=none;" parent="Q-hC3Mq2sGvMtCFczJsx-11" vertex="1">
          <mxGeometry y="110" width="240" height="24" as="geometry" />
        </mxCell>
        <mxCell id="Q-hC3Mq2sGvMtCFczJsx-22" value="InvoiceOrderCloudRepository" style="swimlane;fontStyle=2;align=center;verticalAlign=top;childLayout=stackLayout;horizontal=1;startSize=26;horizontalStack=0;resizeParent=1;resizeLast=0;collapsible=1;marginBottom=0;rounded=0;shadow=0;strokeWidth=1;fillColor=#fff2cc;strokeColor=#d6b656;" parent="WIyWlLk6GJQsqaUBKTNV-1" vertex="1">
          <mxGeometry x="-1702.5" y="-870" width="185" height="114" as="geometry">
            <mxRectangle x="230" y="140" width="160" height="26" as="alternateBounds" />
          </mxGeometry>
        </mxCell>
        <mxCell id="Q-hC3Mq2sGvMtCFczJsx-23" value="downloadInvoice(String invoiceId)" style="text;align=left;verticalAlign=top;spacingLeft=4;spacingRight=4;overflow=hidden;rotatable=0;points=[[0,0.5],[1,0.5]];portConstraint=eastwest;fillColor=none;" parent="Q-hC3Mq2sGvMtCFczJsx-22" vertex="1">
          <mxGeometry y="26" width="185" height="24" as="geometry" />
        </mxCell>
        <mxCell id="Q-hC3Mq2sGvMtCFczJsx-24" value="deleteInvoice (String invoiceId)" style="text;align=left;verticalAlign=top;spacingLeft=4;spacingRight=4;overflow=hidden;rotatable=0;points=[[0,0.5],[1,0.5]];portConstraint=eastwest;fillColor=none;" parent="Q-hC3Mq2sGvMtCFczJsx-22" vertex="1">
          <mxGeometry y="50" width="185" height="30" as="geometry" />
        </mxCell>
        <mxCell id="Q-hC3Mq2sGvMtCFczJsx-26" value="void save(InvoiceFile invoiceFile)" style="text;align=left;verticalAlign=top;spacingLeft=4;spacingRight=4;overflow=hidden;rotatable=0;points=[[0,0.5],[1,0.5]];portConstraint=eastwest;fillColor=none;" parent="Q-hC3Mq2sGvMtCFczJsx-22" vertex="1">
          <mxGeometry y="80" width="185" height="34" as="geometry" />
        </mxCell>
        <mxCell id="Q-hC3Mq2sGvMtCFczJsx-29" value="PdfCreatorService" style="swimlane;fontStyle=2;align=center;verticalAlign=top;childLayout=stackLayout;horizontal=1;startSize=26;horizontalStack=0;resizeParent=1;resizeLast=0;collapsible=1;marginBottom=0;rounded=0;shadow=0;strokeWidth=1;fillColor=#fff2cc;strokeColor=#d6b656;" parent="WIyWlLk6GJQsqaUBKTNV-1" vertex="1">
          <mxGeometry x="-1730" y="-1210" width="185" height="70" as="geometry">
            <mxRectangle x="230" y="140" width="160" height="26" as="alternateBounds" />
          </mxGeometry>
        </mxCell>
        <mxCell id="Q-hC3Mq2sGvMtCFczJsx-30" value="createInvoicePdfFile&#xa;(InvoiceData invoiceData)" style="text;align=left;verticalAlign=top;spacingLeft=4;spacingRight=4;overflow=hidden;rotatable=0;points=[[0,0.5],[1,0.5]];portConstraint=eastwest;fillColor=none;" parent="Q-hC3Mq2sGvMtCFczJsx-29" vertex="1">
          <mxGeometry y="26" width="185" height="44" as="geometry" />
        </mxCell>
        <mxCell id="Q-hC3Mq2sGvMtCFczJsx-133" style="edgeStyle=orthogonalEdgeStyle;rounded=0;orthogonalLoop=1;jettySize=auto;html=1;entryX=0;entryY=0.5;entryDx=0;entryDy=0;" parent="WIyWlLk6GJQsqaUBKTNV-1" source="Q-hC3Mq2sGvMtCFczJsx-34" target="ApyK9dZCyS79xW809X-P-90" edge="1">
          <mxGeometry relative="1" as="geometry">
            <Array as="points">
              <mxPoint x="-1730" y="-728" />
              <mxPoint x="-1730" y="-970" />
              <mxPoint x="-1380" y="-970" />
            </Array>
          </mxGeometry>
        </mxCell>
        <mxCell id="Q-hC3Mq2sGvMtCFczJsx-34" value="DownloadnvoiceOrderPort" style="swimlane;fontStyle=2;align=center;verticalAlign=top;childLayout=stackLayout;horizontal=1;startSize=26;horizontalStack=0;resizeParent=1;resizeLast=0;collapsible=1;marginBottom=0;rounded=0;shadow=0;strokeWidth=1;" parent="WIyWlLk6GJQsqaUBKTNV-1" vertex="1">
          <mxGeometry x="-2045" y="-796" width="278" height="136" as="geometry">
            <mxRectangle x="230" y="140" width="160" height="26" as="alternateBounds" />
          </mxGeometry>
        </mxCell>
        <mxCell id="Q-hC3Mq2sGvMtCFczJsx-35" value="InvoiceFileRepository invoirceFileRepository" style="text;align=left;verticalAlign=top;spacingLeft=4;spacingRight=4;overflow=hidden;rotatable=0;points=[[0,0.5],[1,0.5]];portConstraint=eastwest;" parent="Q-hC3Mq2sGvMtCFczJsx-34" vertex="1">
          <mxGeometry y="26" width="278" height="26" as="geometry" />
        </mxCell>
        <mxCell id="Q-hC3Mq2sGvMtCFczJsx-48" value="InvoiceFileRepository invoiceFileRepository" style="text;align=left;verticalAlign=top;spacingLeft=4;spacingRight=4;overflow=hidden;rotatable=0;points=[[0,0.5],[1,0.5]];portConstraint=eastwest;" parent="Q-hC3Mq2sGvMtCFczJsx-34" vertex="1">
          <mxGeometry y="52" width="278" height="26" as="geometry" />
        </mxCell>
        <mxCell id="Q-hC3Mq2sGvMtCFczJsx-36" value="" style="line;html=1;strokeWidth=1;align=left;verticalAlign=middle;spacingTop=-1;spacingLeft=3;spacingRight=3;rotatable=0;labelPosition=right;points=[];portConstraint=eastwest;" parent="Q-hC3Mq2sGvMtCFczJsx-34" vertex="1">
          <mxGeometry y="78" width="278" height="8" as="geometry" />
        </mxCell>
        <mxCell id="Q-hC3Mq2sGvMtCFczJsx-42" value="downloadInvoice(String invoiceId)" style="text;align=left;verticalAlign=top;spacingLeft=4;spacingRight=4;overflow=hidden;rotatable=0;points=[[0,0.5],[1,0.5]];portConstraint=eastwest;fillColor=none;" parent="Q-hC3Mq2sGvMtCFczJsx-34" vertex="1">
          <mxGeometry y="86" width="278" height="24" as="geometry" />
        </mxCell>
        <mxCell id="Q-hC3Mq2sGvMtCFczJsx-38" value="DownladInvoiceUseCase" style="swimlane;fontStyle=2;align=center;verticalAlign=top;childLayout=stackLayout;horizontal=1;startSize=26;horizontalStack=0;resizeParent=1;resizeLast=0;collapsible=1;marginBottom=0;rounded=0;shadow=0;strokeWidth=1;fillColor=#fff2cc;strokeColor=#d6b656;" parent="WIyWlLk6GJQsqaUBKTNV-1" vertex="1">
          <mxGeometry x="-2359.5" y="-828" width="187.5" height="60" as="geometry">
            <mxRectangle x="230" y="140" width="160" height="26" as="alternateBounds" />
          </mxGeometry>
        </mxCell>
        <mxCell id="Q-hC3Mq2sGvMtCFczJsx-39" value="save(InvoiceOrder invoiceOrder)" style="text;align=left;verticalAlign=top;spacingLeft=4;spacingRight=4;overflow=hidden;rotatable=0;points=[[0,0.5],[1,0.5]];portConstraint=eastwest;" parent="Q-hC3Mq2sGvMtCFczJsx-38" vertex="1">
          <mxGeometry y="26" width="187.5" height="26" as="geometry" />
        </mxCell>
        <mxCell id="Q-hC3Mq2sGvMtCFczJsx-41" style="edgeStyle=orthogonalEdgeStyle;rounded=0;orthogonalLoop=1;jettySize=auto;html=1;entryX=1;entryY=0.5;entryDx=0;entryDy=0;endArrow=block;endFill=0;" parent="WIyWlLk6GJQsqaUBKTNV-1" source="Q-hC3Mq2sGvMtCFczJsx-35" target="Q-hC3Mq2sGvMtCFczJsx-39" edge="1">
          <mxGeometry relative="1" as="geometry" />
        </mxCell>
        <mxCell id="Q-hC3Mq2sGvMtCFczJsx-69" value="InvoiceSignService" style="swimlane;fontStyle=2;align=center;verticalAlign=top;childLayout=stackLayout;horizontal=1;startSize=26;horizontalStack=0;resizeParent=1;resizeLast=0;collapsible=1;marginBottom=0;rounded=0;shadow=0;strokeWidth=1;fillColor=#fff2cc;strokeColor=#d6b656;" parent="WIyWlLk6GJQsqaUBKTNV-1" vertex="1">
          <mxGeometry x="-1690" y="-608" width="185" height="60" as="geometry">
            <mxRectangle x="230" y="140" width="160" height="26" as="alternateBounds" />
          </mxGeometry>
        </mxCell>
        <mxCell id="Q-hC3Mq2sGvMtCFczJsx-70" value="singInvoice(String invoiceId)" style="text;align=left;verticalAlign=top;spacingLeft=4;spacingRight=4;overflow=hidden;rotatable=0;points=[[0,0.5],[1,0.5]];portConstraint=eastwest;fillColor=none;" parent="Q-hC3Mq2sGvMtCFczJsx-69" vertex="1">
          <mxGeometry y="26" width="185" height="24" as="geometry" />
        </mxCell>
        <mxCell id="Q-hC3Mq2sGvMtCFczJsx-122" style="edgeStyle=orthogonalEdgeStyle;rounded=0;orthogonalLoop=1;jettySize=auto;html=1;entryX=1;entryY=0.5;entryDx=0;entryDy=0;endArrow=block;endFill=0;" parent="WIyWlLk6GJQsqaUBKTNV-1" source="Q-hC3Mq2sGvMtCFczJsx-71" target="Q-hC3Mq2sGvMtCFczJsx-70" edge="1">
          <mxGeometry relative="1" as="geometry" />
        </mxCell>
        <mxCell id="Q-hC3Mq2sGvMtCFczJsx-71" value="AutofirmaSingService" style="swimlane;fontStyle=2;align=center;verticalAlign=top;childLayout=stackLayout;horizontal=1;startSize=26;horizontalStack=0;resizeParent=1;resizeLast=0;collapsible=1;marginBottom=0;rounded=0;shadow=0;strokeWidth=1;" parent="WIyWlLk6GJQsqaUBKTNV-1" vertex="1">
          <mxGeometry x="-1460" y="-608" width="190" height="60" as="geometry">
            <mxRectangle x="230" y="140" width="160" height="26" as="alternateBounds" />
          </mxGeometry>
        </mxCell>
        <mxCell id="Q-hC3Mq2sGvMtCFczJsx-75" value="signInvoice (String invoiceId)" style="text;align=left;verticalAlign=top;spacingLeft=4;spacingRight=4;overflow=hidden;rotatable=0;points=[[0,0.5],[1,0.5]];portConstraint=eastwest;" parent="Q-hC3Mq2sGvMtCFczJsx-71" vertex="1">
          <mxGeometry y="26" width="190" height="26" as="geometry" />
        </mxCell>
        <mxCell id="Q-hC3Mq2sGvMtCFczJsx-134" style="edgeStyle=orthogonalEdgeStyle;rounded=0;orthogonalLoop=1;jettySize=auto;html=1;" parent="WIyWlLk6GJQsqaUBKTNV-1" source="Q-hC3Mq2sGvMtCFczJsx-99" edge="1">
          <mxGeometry relative="1" as="geometry">
            <mxPoint x="-1210" y="-990" as="targetPoint" />
            <Array as="points">
              <mxPoint x="-1210" y="-500" />
            </Array>
          </mxGeometry>
        </mxCell>
        <mxCell id="Q-hC3Mq2sGvMtCFczJsx-99" value="SingInvoiceOrderPort" style="swimlane;fontStyle=2;align=center;verticalAlign=top;childLayout=stackLayout;horizontal=1;startSize=26;horizontalStack=0;resizeParent=1;resizeLast=0;collapsible=1;marginBottom=0;rounded=0;shadow=0;strokeWidth=1;" parent="WIyWlLk6GJQsqaUBKTNV-1" vertex="1">
          <mxGeometry x="-2060" y="-630" width="290" height="170" as="geometry">
            <mxRectangle x="230" y="140" width="160" height="26" as="alternateBounds" />
          </mxGeometry>
        </mxCell>
        <mxCell id="Q-hC3Mq2sGvMtCFczJsx-100" value="InvoiceOrderRepository invoiceOrderRepository" style="text;align=left;verticalAlign=top;spacingLeft=4;spacingRight=4;overflow=hidden;rotatable=0;points=[[0,0.5],[1,0.5]];portConstraint=eastwest;" parent="Q-hC3Mq2sGvMtCFczJsx-99" vertex="1">
          <mxGeometry y="26" width="290" height="26" as="geometry" />
        </mxCell>
        <mxCell id="Q-hC3Mq2sGvMtCFczJsx-102" value="InvoiceFileRepository invoiceFileRepository" style="text;align=left;verticalAlign=top;spacingLeft=4;spacingRight=4;overflow=hidden;rotatable=0;points=[[0,0.5],[1,0.5]];portConstraint=eastwest;" parent="Q-hC3Mq2sGvMtCFczJsx-99" vertex="1">
          <mxGeometry y="52" width="290" height="26" as="geometry" />
        </mxCell>
        <mxCell id="Q-hC3Mq2sGvMtCFczJsx-103" value="InvoiceSignService invoiceSignService" style="text;align=left;verticalAlign=top;spacingLeft=4;spacingRight=4;overflow=hidden;rotatable=0;points=[[0,0.5],[1,0.5]];portConstraint=eastwest;" parent="Q-hC3Mq2sGvMtCFczJsx-99" vertex="1">
          <mxGeometry y="78" width="290" height="26" as="geometry" />
        </mxCell>
        <mxCell id="Q-hC3Mq2sGvMtCFczJsx-104" value="" style="line;html=1;strokeWidth=1;align=left;verticalAlign=middle;spacingTop=-1;spacingLeft=3;spacingRight=3;rotatable=0;labelPosition=right;points=[];portConstraint=eastwest;" parent="Q-hC3Mq2sGvMtCFczJsx-99" vertex="1">
          <mxGeometry y="104" width="290" height="8" as="geometry" />
        </mxCell>
        <mxCell id="Q-hC3Mq2sGvMtCFczJsx-105" value="signInvoice(InvoiceOrder invoiceOrder)" style="text;align=left;verticalAlign=top;spacingLeft=4;spacingRight=4;overflow=hidden;rotatable=0;points=[[0,0.5],[1,0.5]];portConstraint=eastwest;" parent="Q-hC3Mq2sGvMtCFczJsx-99" vertex="1">
          <mxGeometry y="112" width="290" height="26" as="geometry" />
        </mxCell>
        <mxCell id="Q-hC3Mq2sGvMtCFczJsx-106" value="SignInvoiceUseCase" style="swimlane;fontStyle=2;align=center;verticalAlign=top;childLayout=stackLayout;horizontal=1;startSize=26;horizontalStack=0;resizeParent=1;resizeLast=0;collapsible=1;marginBottom=0;rounded=0;shadow=0;strokeWidth=1;fillColor=#fff2cc;strokeColor=#d6b656;" parent="WIyWlLk6GJQsqaUBKTNV-1" vertex="1">
          <mxGeometry x="-2390" y="-618" width="260" height="60" as="geometry">
            <mxRectangle x="230" y="140" width="160" height="26" as="alternateBounds" />
          </mxGeometry>
        </mxCell>
        <mxCell id="Q-hC3Mq2sGvMtCFczJsx-107" value="signInvoice(InvoiceOrder invoiceOrder)" style="text;align=left;verticalAlign=top;spacingLeft=4;spacingRight=4;overflow=hidden;rotatable=0;points=[[0,0.5],[1,0.5]];portConstraint=eastwest;" parent="Q-hC3Mq2sGvMtCFczJsx-106" vertex="1">
          <mxGeometry y="26" width="260" height="26" as="geometry" />
        </mxCell>
        <mxCell id="Q-hC3Mq2sGvMtCFczJsx-108" style="edgeStyle=orthogonalEdgeStyle;rounded=0;orthogonalLoop=1;jettySize=auto;html=1;entryX=0;entryY=0.5;entryDx=0;entryDy=0;startArrow=block;startFill=0;endArrow=none;endFill=0;exitX=1;exitY=0.5;exitDx=0;exitDy=0;" parent="WIyWlLk6GJQsqaUBKTNV-1" edge="1">
          <mxGeometry relative="1" as="geometry">
            <mxPoint x="-2130" y="-582" as="sourcePoint" />
            <mxPoint x="-2060" y="-594" as="targetPoint" />
            <Array as="points">
              <mxPoint x="-2130" y="-583" />
              <mxPoint x="-2060" y="-583" />
            </Array>
          </mxGeometry>
        </mxCell>
        <mxCell id="Q-hC3Mq2sGvMtCFczJsx-113" style="edgeStyle=orthogonalEdgeStyle;rounded=0;orthogonalLoop=1;jettySize=auto;html=1;" parent="WIyWlLk6GJQsqaUBKTNV-1" source="Q-hC3Mq2sGvMtCFczJsx-47" target="ApyK9dZCyS79xW809X-P-90" edge="1">
          <mxGeometry relative="1" as="geometry">
            <Array as="points">
              <mxPoint x="-1579" y="-1019" />
              <mxPoint x="-1579" y="-1020" />
            </Array>
          </mxGeometry>
        </mxCell>
        <mxCell id="Q-hC3Mq2sGvMtCFczJsx-114" style="edgeStyle=orthogonalEdgeStyle;rounded=0;orthogonalLoop=1;jettySize=auto;html=1;entryX=0;entryY=0.5;entryDx=0;entryDy=0;" parent="WIyWlLk6GJQsqaUBKTNV-1" source="eS_6kq-HFucETP7qqi-i-15" target="ApyK9dZCyS79xW809X-P-87" edge="1">
          <mxGeometry relative="1" as="geometry">
            <Array as="points">
              <mxPoint x="-1570" y="-1351" />
              <mxPoint x="-1570" y="-1230" />
              <mxPoint x="-1470" y="-1230" />
              <mxPoint x="-1470" y="-1149" />
            </Array>
          </mxGeometry>
        </mxCell>
        <mxCell id="Q-hC3Mq2sGvMtCFczJsx-115" style="edgeStyle=orthogonalEdgeStyle;rounded=0;orthogonalLoop=1;jettySize=auto;html=1;entryX=0;entryY=0.5;entryDx=0;entryDy=0;" parent="WIyWlLk6GJQsqaUBKTNV-1" source="eS_6kq-HFucETP7qqi-i-21" target="ApyK9dZCyS79xW809X-P-86" edge="1">
          <mxGeometry relative="1" as="geometry">
            <Array as="points">
              <mxPoint x="-1545" y="-1421" />
              <mxPoint x="-1545" y="-1240" />
              <mxPoint x="-1460" y="-1240" />
              <mxPoint x="-1460" y="-1191" />
            </Array>
          </mxGeometry>
        </mxCell>
        <mxCell id="Q-hC3Mq2sGvMtCFczJsx-116" style="edgeStyle=orthogonalEdgeStyle;rounded=0;orthogonalLoop=1;jettySize=auto;html=1;entryX=0;entryY=0.5;entryDx=0;entryDy=0;" parent="WIyWlLk6GJQsqaUBKTNV-1" source="eS_6kq-HFucETP7qqi-i-1" target="ApyK9dZCyS79xW809X-P-88" edge="1">
          <mxGeometry relative="1" as="geometry">
            <Array as="points">
              <mxPoint x="-1590" y="-1241" />
              <mxPoint x="-1590" y="-1220" />
              <mxPoint x="-1490" y="-1220" />
              <mxPoint x="-1490" y="-1116" />
            </Array>
          </mxGeometry>
        </mxCell>
        <mxCell id="Q-hC3Mq2sGvMtCFczJsx-117" style="edgeStyle=orthogonalEdgeStyle;rounded=0;orthogonalLoop=1;jettySize=auto;html=1;entryX=0;entryY=0.5;entryDx=0;entryDy=0;" parent="WIyWlLk6GJQsqaUBKTNV-1" source="Q-hC3Mq2sGvMtCFczJsx-46" target="Q-hC3Mq2sGvMtCFczJsx-24" edge="1">
          <mxGeometry relative="1" as="geometry" />
        </mxCell>
        <mxCell id="Q-hC3Mq2sGvMtCFczJsx-118" style="edgeStyle=orthogonalEdgeStyle;rounded=0;orthogonalLoop=1;jettySize=auto;html=1;entryX=0;entryY=0.5;entryDx=0;entryDy=0;" parent="WIyWlLk6GJQsqaUBKTNV-1" source="Q-hC3Mq2sGvMtCFczJsx-36" target="Q-hC3Mq2sGvMtCFczJsx-24" edge="1">
          <mxGeometry relative="1" as="geometry" />
        </mxCell>
        <mxCell id="Q-hC3Mq2sGvMtCFczJsx-119" style="edgeStyle=orthogonalEdgeStyle;rounded=0;orthogonalLoop=1;jettySize=auto;html=1;entryX=0;entryY=0.5;entryDx=0;entryDy=0;" parent="WIyWlLk6GJQsqaUBKTNV-1" target="Q-hC3Mq2sGvMtCFczJsx-24" edge="1">
          <mxGeometry relative="1" as="geometry">
            <mxPoint x="-1770" y="-539" as="sourcePoint" />
            <Array as="points">
              <mxPoint x="-1730" y="-539" />
              <mxPoint x="-1730" y="-805" />
            </Array>
          </mxGeometry>
        </mxCell>
        <mxCell id="Q-hC3Mq2sGvMtCFczJsx-121" style="edgeStyle=orthogonalEdgeStyle;rounded=0;orthogonalLoop=1;jettySize=auto;html=1;entryX=0;entryY=0.5;entryDx=0;entryDy=0;" parent="WIyWlLk6GJQsqaUBKTNV-1" target="Q-hC3Mq2sGvMtCFczJsx-69" edge="1">
          <mxGeometry relative="1" as="geometry">
            <mxPoint x="-1770" y="-564.9655172413791" as="sourcePoint" />
          </mxGeometry>
        </mxCell>
        <mxCell id="Q-hC3Mq2sGvMtCFczJsx-140" style="edgeStyle=orthogonalEdgeStyle;rounded=0;orthogonalLoop=1;jettySize=auto;html=1;entryX=0;entryY=0.5;entryDx=0;entryDy=0;exitX=0.998;exitY=0.409;exitDx=0;exitDy=0;exitPerimeter=0;" parent="WIyWlLk6GJQsqaUBKTNV-1" source="eS_6kq-HFucETP7qqi-i-167" target="eS_6kq-HFucETP7qqi-i-26" edge="1">
          <mxGeometry relative="1" as="geometry">
            <Array as="points">
              <mxPoint x="-2440" y="-1206" />
              <mxPoint x="-2440" y="-1208" />
            </Array>
          </mxGeometry>
        </mxCell>
        <mxCell id="Q-hC3Mq2sGvMtCFczJsx-141" style="edgeStyle=orthogonalEdgeStyle;rounded=0;orthogonalLoop=1;jettySize=auto;html=1;entryX=0;entryY=0.5;entryDx=0;entryDy=0;" parent="WIyWlLk6GJQsqaUBKTNV-1" source="eS_6kq-HFucETP7qqi-i-175" target="eS_6kq-HFucETP7qqi-i-34" edge="1">
          <mxGeometry relative="1" as="geometry" />
        </mxCell>
        <mxCell id="Q-hC3Mq2sGvMtCFczJsx-143" style="edgeStyle=orthogonalEdgeStyle;rounded=0;orthogonalLoop=1;jettySize=auto;html=1;entryX=0;entryY=0.5;entryDx=0;entryDy=0;" parent="WIyWlLk6GJQsqaUBKTNV-1" source="eS_6kq-HFucETP7qqi-i-171" target="eS_6kq-HFucETP7qqi-i-30" edge="1">
          <mxGeometry relative="1" as="geometry" />
        </mxCell>
        <mxCell id="Q-hC3Mq2sGvMtCFczJsx-144" style="edgeStyle=orthogonalEdgeStyle;rounded=0;orthogonalLoop=1;jettySize=auto;html=1;entryX=0;entryY=0.5;entryDx=0;entryDy=0;" parent="WIyWlLk6GJQsqaUBKTNV-1" source="eS_6kq-HFucETP7qqi-i-173" target="Q-hC3Mq2sGvMtCFczJsx-39" edge="1">
          <mxGeometry relative="1" as="geometry" />
        </mxCell>
      </root>
    </mxGraphModel>
  </diagram>
</mxfile>
